<?xml version="1.0" encoding="UTF-8"?>
<svg width="250px" height="100px" viewBox="0 0 250 100" version="1.1" xmlns="http://www.w3.org/2000/svg" xmlns:xlink="http://www.w3.org/1999/xlink">
    <!-- Generator: Sketch 49.2 (51160) - http://www.bohemiancoding.com/sketch -->
    <title>border</title>
    <desc>Created with Sketch.</desc>
    <defs></defs>
    <g id="border" stroke="none" stroke-width="1" fill="none" fill-rule="evenodd">
        <path d="M110.547464,50.4617087 L110.547464,66.0612673 L107.806377,66.0612673 L107.806377,50.4617087 L110.547464,50.4617087 Z M111.163439,45.5647101 C111.163439,45.8316338 111.109542,46.0805877 111.001746,46.3115794 C110.89395,46.542571 110.750224,46.7478939 110.570564,46.927554 C110.390903,47.1072142 110.183014,47.2483737 109.946889,47.3510366 C109.710764,47.4536996 109.459244,47.5050303 109.19232,47.5050303 C108.925397,47.5050303 108.676443,47.4536996 108.445451,47.3510366 C108.214459,47.2483737 108.009136,47.1072142 107.829476,46.927554 C107.649816,46.7478939 107.508657,46.542571 107.405994,46.3115794 C107.303331,46.0805877 107.252,45.8316338 107.252,45.5647101 C107.252,45.2977864 107.303331,45.0436994 107.405994,44.8024414 C107.508657,44.5611835 107.649816,44.3507276 107.829476,44.1710674 C108.009136,43.9914072 108.214459,43.8502478 108.445451,43.7475848 C108.676443,43.6449218 108.925397,43.5935911 109.19232,43.5935911 C109.459244,43.5935911 109.710764,43.6449218 109.946889,43.7475848 C110.183014,43.8502478 110.390903,43.9914072 110.570564,44.1710674 C110.750224,44.3507276 110.89395,44.5611835 111.001746,44.8024414 C111.109542,45.0436994 111.163439,45.2977864 111.163439,45.5647101 Z M115.382866,66.0612673 L115.382866,50.4617087 L117.015199,50.4617087 C117.405318,50.4617087 117.651705,50.6516324 117.754368,51.0314853 L117.969959,52.7254156 C118.647535,51.975976 119.404663,51.3702737 120.241366,50.9082904 C121.078069,50.4463071 122.045653,50.2153189 123.144147,50.2153189 C123.996249,50.2153189 124.748244,50.3564783 125.400154,50.6388014 C126.052064,50.9211246 126.596169,51.3215041 127.032487,51.8399521 C127.468804,52.3584 127.799887,52.9820681 128.025746,53.7109751 C128.251604,54.4398821 128.364532,55.2457743 128.364532,56.1286757 L128.364532,66.0612673 L125.623445,66.0612673 L125.623445,56.1286757 C125.623445,54.9480517 125.353958,54.0317985 124.814978,53.3798887 C124.275997,52.7279789 123.452139,52.4020289 122.343379,52.4020289 C121.532342,52.4020289 120.775214,52.5970856 120.071973,52.9872049 C119.368732,53.3773241 118.719398,53.9060304 118.123953,54.5733397 L118.123953,66.0612673 L115.382866,66.0612673 Z M143.147924,53.2335948 C143.065794,53.346524 142.983665,53.4337862 142.901534,53.495384 C142.819404,53.5569818 142.701343,53.5877802 142.547349,53.5877802 C142.393354,53.5877802 142.226529,53.5236168 142.046869,53.3952881 C141.867209,53.2669594 141.638787,53.1258 141.361597,52.9718055 C141.084407,52.8178111 140.748191,52.6766516 140.352939,52.5483229 C139.957687,52.4199942 139.472611,52.3558308 138.897699,52.3558308 C138.137993,52.3558308 137.465561,52.4918572 136.880382,52.7639141 C136.295203,53.0359709 135.804995,53.4286508 135.409742,53.9419656 C135.01449,54.4552804 134.716772,55.076382 134.516579,55.805289 C134.316386,56.534196 134.216291,57.3503543 134.216291,58.2537883 C134.216291,59.1982875 134.324086,60.0375446 134.539678,60.7715848 C134.75527,61.505625 135.058121,62.1215935 135.448241,62.6195088 C135.83836,63.1174242 136.313169,63.4972714 136.872682,63.759062 C137.432195,64.0208525 138.060996,64.1517458 138.759104,64.1517458 C139.426414,64.1517458 139.975652,64.0721832 140.406837,63.9130556 C140.838021,63.753928 141.197336,63.5768371 141.484792,63.3817775 C141.772249,63.1867179 142.00837,63.0096269 142.193163,62.8504993 C142.377957,62.6913717 142.562747,62.6118091 142.74754,62.6118091 C142.983665,62.6118091 143.15819,62.6990713 143.271119,62.8735984 L144.041087,63.8745572 C143.363512,64.7061272 142.516555,65.3143961 141.500192,65.6993822 C140.483828,66.0843683 139.411017,66.2768584 138.281724,66.2768584 C137.306426,66.2768584 136.400439,66.0972009 135.563736,65.7378806 C134.727033,65.3785602 134.000703,64.8575535 133.384725,64.1748449 C132.768748,63.4921362 132.283673,62.6528791 131.929485,61.6570484 C131.575298,60.6612177 131.398207,59.526809 131.398207,58.2537883 C131.398207,57.0936969 131.559899,56.0208851 131.883287,55.0353207 C132.206676,54.0497563 132.678918,53.200233 133.300029,52.4867255 C133.92114,51.7732179 134.688534,51.2162797 135.602234,50.8158942 C136.515935,50.4155086 137.563081,50.2153189 138.743705,50.2153189 C139.831932,50.2153189 140.79695,50.3924098 141.638786,50.746597 C142.480622,51.1007842 143.224918,51.6012586 143.871694,52.2480353 L143.147924,53.2335948 Z M146.88997,66.0612673 L146.88997,43.378 L149.631057,43.378 L149.631057,52.5560226 C150.298367,51.8476482 151.037529,51.2804439 151.848566,50.8543926 C152.659604,50.4283413 153.593823,50.2153189 154.651251,50.2153189 C155.503354,50.2153189 156.255348,50.3564783 156.907258,50.6388014 C157.559168,50.9211246 158.103274,51.3215041 158.539591,51.8399521 C158.975909,52.3584 159.306992,52.9820681 159.53285,53.7109751 C159.758709,54.4398821 159.871636,55.2457743 159.871636,56.1286757 L159.871636,66.0612673 L157.130549,66.0612673 L157.130549,56.1286757 C157.130549,54.9480517 156.861063,54.0317985 156.322082,53.3798887 C155.783102,52.7279789 154.959244,52.4020289 153.850484,52.4020289 C153.039447,52.4020289 152.282319,52.5970856 151.579077,52.9872049 C150.875836,53.3773241 150.226503,53.9060304 149.631057,54.5733397 L149.631057,66.0612673 L146.88997,66.0612673 Z M170.189212,50.2153189 C171.123445,50.2153189 171.985801,50.3718775 172.776306,50.6849995 C173.566811,50.9981216 174.249509,51.4498318 174.824422,52.0401438 C175.399334,52.6304558 175.848478,53.3593519 176.171866,54.2268539 C176.495254,55.0943559 176.656946,56.0824721 176.656946,57.191232 C176.656946,57.6224164 176.610749,57.9098684 176.518352,58.0535966 C176.425955,58.1973247 176.251431,58.2691877 175.994773,58.2691877 L165.6156,58.2691877 C165.636133,59.2547521 165.769593,60.1119749 166.015984,60.840882 C166.262375,61.569789 166.601157,62.1780579 167.032342,62.6657069 C167.463526,63.153356 167.976833,63.517804 168.572279,63.759062 C169.167724,64.0003199 169.835023,64.1209471 170.574196,64.1209471 C171.262038,64.1209471 171.854908,64.0413845 172.352823,63.8822569 C172.850738,63.7231293 173.27935,63.5511714 173.63867,63.3663781 C173.997991,63.1815848 174.298275,63.0096269 174.539533,62.8504993 C174.780791,62.6913717 174.988681,62.6118091 175.163208,62.6118091 C175.389066,62.6118091 175.563591,62.6990713 175.686786,62.8735984 L176.456754,63.8745572 C176.117967,64.285209 175.712454,64.6419575 175.240204,64.9448132 C174.767955,65.2476689 174.262347,65.4966229 173.723367,65.6916825 C173.184386,65.8867421 172.627448,66.0330346 172.052535,66.1305644 C171.477623,66.2280943 170.907852,66.2768584 170.343206,66.2768584 C169.265245,66.2768584 168.271995,66.0946344 167.363428,65.7301809 C166.454861,65.3657274 165.669501,64.831888 165.007325,64.1286468 C164.345149,63.4254055 163.829275,62.55535 163.459689,61.5184541 C163.090102,60.4815582 162.905312,59.2906858 162.905312,57.945801 C162.905312,56.8575736 163.072136,55.8412256 163.405791,54.8967264 C163.739446,53.9522271 164.219388,53.1335023 164.845632,52.4405274 C165.471876,51.7475524 166.236703,51.2034469 167.140137,50.8081945 C168.043572,50.4129421 169.05992,50.2153189 170.189212,50.2153189 Z M170.25081,52.2326359 C168.926457,52.2326359 167.884444,52.6150497 167.124738,53.3798887 C166.365032,54.1447278 165.89279,55.2047069 165.707996,56.559858 L174.193047,56.559858 C174.193047,55.9233476 174.105785,55.3407441 173.931258,54.8120298 C173.756731,54.2833156 173.500078,53.8264723 173.16129,53.4414862 C172.822502,53.0565001 172.40929,52.758782 171.921641,52.5483229 C171.433992,52.3378639 170.877054,52.2326359 170.25081,52.2326359 Z M189.084235,53.033403 C188.96104,53.2592615 188.771116,53.3721891 188.514459,53.3721891 C188.360464,53.3721891 188.18594,53.3157253 187.99088,53.202796 C187.795821,53.0898668 187.557133,52.9641065 187.27481,52.8255115 C186.992486,52.6869165 186.65627,52.5585898 186.266151,52.4405274 C185.876032,52.322465 185.414055,52.2634346 184.880208,52.2634346 C184.418225,52.2634346 184.002446,52.322465 183.632859,52.4405274 C183.263273,52.5585898 182.947589,52.7202815 182.685798,52.9256074 C182.424008,53.1309333 182.223818,53.3696211 182.085223,53.641678 C181.946628,53.9137348 181.877332,54.2088864 181.877332,54.5271416 C181.877332,54.9275271 181.992826,55.2611767 182.223817,55.5281004 C182.454809,55.7950241 182.760227,56.0260123 183.14008,56.2210719 C183.519933,56.4161315 183.95111,56.5880894 184.433626,56.7369507 C184.916142,56.885812 185.411484,57.0449372 185.919665,57.2143311 C186.427847,57.383725 186.923188,57.571082 187.405704,57.776408 C187.88822,57.9817339 188.319398,58.2383874 188.699251,58.5463763 C189.079104,58.8543652 189.384522,59.2316459 189.615513,59.6782298 C189.846505,60.1248136 189.961999,60.6612195 189.961999,61.2874636 C189.961999,62.0061043 189.833672,62.670837 189.577015,63.2816816 C189.320358,63.8925262 188.94051,64.4212325 188.437462,64.8678164 C187.934413,65.3144002 187.318445,65.6660156 186.589538,65.922673 C185.860631,66.1793304 185.018807,66.3076572 184.064042,66.3076572 C182.975814,66.3076572 181.990265,66.1305662 181.107363,65.776379 C180.224462,65.4221918 179.475033,64.967915 178.859056,64.413535 L179.505829,63.3663781 C179.587959,63.2329163 179.685488,63.1302548 179.798417,63.0583908 C179.911346,62.9865267 180.060205,62.9505952 180.244999,62.9505952 C180.429792,62.9505952 180.624849,63.0224582 180.830175,63.1661863 C181.0355,63.3099145 181.284454,63.4690397 181.577044,63.6435667 C181.869633,63.8180937 182.223815,63.9772189 182.6396,64.1209471 C183.055385,64.2646752 183.576392,64.3365382 184.202636,64.3365382 C184.736483,64.3365382 185.203593,64.2672418 185.603978,64.1286468 C186.004364,63.9900518 186.338013,63.8026947 186.604937,63.5665699 C186.871861,63.3304451 187.069484,63.0583923 187.197813,62.7504034 C187.326141,62.4424146 187.390305,62.113898 187.390305,61.764844 C187.390305,61.3336595 187.274811,60.9769111 187.043819,60.694588 C186.812827,60.4122648 186.50741,60.1710105 186.127557,59.9708177 C185.747704,59.770625 185.313959,59.5961005 184.82631,59.4472393 C184.338661,59.298378 183.840753,59.1418193 183.332572,58.9775586 C182.82439,58.8132978 182.326482,58.6259407 181.838833,58.4154817 C181.351184,58.2050226 180.91744,57.9406695 180.537587,57.6224143 C180.157734,57.3041591 179.852316,56.9114792 179.621324,56.4443627 C179.390333,55.9772463 179.274839,55.4100419 179.274839,54.7427327 C179.274839,54.1472875 179.398032,53.5749501 179.644423,53.0257033 C179.890814,52.4764565 180.250129,51.9939478 180.722379,51.5781628 C181.194629,51.1623778 181.774666,50.8312948 182.462507,50.5849037 C183.150349,50.3385126 183.935709,50.2153189 184.818611,50.2153189 C185.84524,50.2153189 186.766626,50.3770106 187.582797,50.7003989 C188.398967,51.0237872 189.104765,51.4677979 189.70021,52.0324441 L189.084235,53.033403 Z" id="6-inches" stroke="#FFFFFF" stroke-width="0.4" fill="#FFFFFF"></path>
        <path d="M84.0305123,40.7483224 C86.1655102,40.7483224 88.136248,41.1003105 89.9427847,41.8042972 C91.7493215,42.508284 93.3036236,43.4997171 94.6057377,44.7786263 C95.9078519,46.0575356 96.9284125,47.6062831 97.6674503,49.4249155 C98.406488,51.2435479 98.7760014,53.2792124 98.7760014,55.5319699 C98.7760014,57.7847275 98.3712963,59.8614572 97.561874,61.7622214 C96.7524517,63.6629855 95.6263158,65.3055966 94.1834326,66.6901038 C92.7405493,68.0746111 91.0102885,69.1540412 88.9925981,69.9284266 C86.9749077,70.702812 84.7578277,71.0899989 82.3412916,71.0899989 C80.0186015,71.0899989 77.8953661,70.714545 75.9715218,69.9636258 C74.0476775,69.2127066 72.3995307,68.1332765 71.027032,66.725303 C69.6545333,65.3173295 68.5929157,63.5984544 67.8421471,61.568626 C67.0913786,59.5387976 66.716,57.2450085 66.716,54.6871901 C66.716,52.7394934 67.2086844,50.5395679 68.1940681,48.0873474 C69.1794518,45.635127 70.7982721,42.8837534 73.0505777,39.8331442 L86.6347275,21.5295807 C87.0335733,20.9898575 87.631833,20.72 88.4295245,20.72 L91.3856608,20.72 L76.5345954,40.1147375 C75.8072884,41.0768527 75.1386452,41.9802888 74.5286458,42.8250729 C73.9186464,43.669857 73.367309,44.5028955 72.8746172,45.3242133 C74.2588466,43.8927736 75.9011281,42.7722782 77.8015109,41.9626935 C79.7018937,41.1531087 81.7782067,40.7483224 84.0305123,40.7483224 Z M69.9888651,55.4967708 C69.9888651,57.3506025 70.2762644,59.0636112 70.8510715,60.6358482 C71.4258787,62.2080852 72.2411541,63.5632394 73.2969223,64.7013513 C74.3526906,65.8394632 75.6430546,66.7252998 77.1680531,67.3588879 C78.6930517,67.992476 80.4057167,68.3092652 82.3060995,68.3092652 C84.3237898,68.3092652 86.1420301,67.992476 87.7608747,67.3588879 C89.3797193,66.7252998 90.7580627,65.8511961 91.8959462,64.7365504 C93.0338297,63.6219048 93.9077581,62.296083 94.5177575,60.7590453 C95.1277569,59.2220076 95.4327521,57.5500642 95.4327521,55.7431649 C95.4327521,53.8424007 95.1336222,52.1235255 94.5353536,50.5864878 C93.9370849,49.0494501 93.092483,47.7470942 92.0015225,46.679381 C90.910562,45.6116678 89.6143327,44.7903623 88.1127956,44.2154398 C86.6112586,43.6405173 84.945516,43.3530603 83.1155177,43.3530603 C81.0509043,43.3530603 79.2033376,43.7109149 77.5727623,44.4266347 C75.9421869,45.1423546 74.5638435,46.0692565 73.4376907,47.2073684 C72.311538,48.3454803 71.4552055,49.6419698 70.8686676,51.0968757 C70.2821297,52.5517816 69.9888651,54.0183986 69.9888651,55.4967708 Z" id="Combined-Shape" stroke="#FFFFFF" stroke-width="0.4" fill="#FFFFFF"></path>
        <rect id="Rectangle-Copy" x="0" y="0" width="250" height="100"></rect>
    </g>
</svg>