<?xml version="1.0" encoding="UTF-8"?>
<svg width="250px" height="100px" viewBox="0 0 250 100" version="1.1" xmlns="http://www.w3.org/2000/svg" xmlns:xlink="http://www.w3.org/1999/xlink">
    <!-- Generator: Sketch 49.2 (51160) - http://www.bohemiancoding.com/sketch -->
    <title>edge_launcher</title>
    <desc>Created with Sketch.</desc>
    <defs></defs>
    <g id="edge_launcher" stroke="none" stroke-width="1" fill="none" fill-rule="evenodd">
        <g id="ic-edge-launcher" transform="translate(85.000000, 10.000000)" fill="#FFFFFF" stroke="#FFFFFF">
            <path d="M39.5999985,2.15372895 C18.9517928,2.15372895 2.15372895,18.9530702 2.15372895,39.6025533 C2.15372895,60.250759 18.9517928,77.046268 39.5999985,77.046268 C60.2469267,77.046268 77.046268,60.250759 77.046268,39.6025533 C77.046268,18.9530702 60.2469267,2.15372895 39.5999985,2.15372895 M39.5999985,79.1999969 C17.7650703,79.1999969 0,61.4349267 0,39.6025533 C0,17.7650703 17.7650703,0 39.5999985,0 C61.4349267,0 79.1999969,17.7650703 79.1999969,39.6025533 C79.1999969,61.4349267 61.4349267,79.1999969 39.5999985,79.1999969" id="Shape" stroke-width="0.4"></path>
            <path d="M39.5999985,21.3341798 C29.5301021,21.3341798 21.3341798,29.5301021 21.3341798,39.5999985 C21.3341798,49.6698949 29.5301021,57.8658171 39.6012759,57.8658171 C49.6724497,57.8658171 57.8658171,49.6698949 57.8658171,39.5999985 C57.8658171,29.5301021 49.6724497,21.3341798 39.6012759,21.3341798 M39.5999985,60.0387074 C28.3306054,60.0387074 19.1612896,50.870669 19.1612896,39.5999985 C19.1612896,28.3293279 28.3306054,19.1612896 39.5999985,19.1612896 C50.8719464,19.1612896 60.0387074,28.3293279 60.0387074,39.5999985 C60.0387074,50.870669 50.8719464,60.0387074 39.5999985,60.0387074 M11.4137415,34.7062051 C11.0274184,34.5711971 10.6221233,34.4983302 10.2129673,34.4903213 L10.202748,34.4903213 C9.18667965,34.4866273 8.21158978,34.8906523 7.49589649,35.6118954 C6.27340621,36.8420502 5.9885417,38.7620114 7.01047715,40.5031339 C7.64152229,41.5825532 8.87550934,42.1548371 10.123548,42.1548371 L10.2410706,42.1548371 C11.263006,42.1548371 12.2197931,41.7588371 12.941535,41.0358178 C13.6594604,40.3193474 14.0594393,39.344485 14.0516124,38.3302437 C14.0447393,37.3894044 13.6908473,36.484205 13.0577801,35.7881793 C12.6129144,35.291 12.0463409,34.9181268 11.4137415,34.7062051 M19.0782573,55.144914 C18.6988638,55.0171721 18.2990316,54.931585 17.8774832,54.9290301 L17.8672638,54.9290301 C16.8511955,54.9253362 15.8761056,55.3293612 15.1604123,56.0506043 C13.937922,57.2794817 13.6530575,59.1981655 14.674993,60.9418428 C15.3060381,62.0187073 16.5400252,62.593546 17.7880638,62.593546 L17.9055864,62.593546 C18.9275219,62.593546 19.8843089,62.197546 20.6060508,61.4745267 C21.3239762,60.7580563 21.7239552,59.7831939 21.7161282,58.7689526 C21.7098835,57.8272305 21.3559492,56.9210133 20.722296,56.2243333 C20.2777851,55.7273215 19.7110204,55.3552033 19.0782573,55.144914 M19.0782573,15.5449155 C18.6919342,15.4099075 18.2866391,15.3370406 17.8774832,15.3290317 L17.8672638,15.3290317 C16.8511955,15.3253377 15.8761056,15.7293627 15.1604123,16.4506058 C13.937922,17.6807606 13.6530575,19.6007218 14.674993,21.3418443 C15.3060381,22.4212637 16.5400252,22.9935475 17.7880638,22.9935475 L17.9055864,22.9935475 C18.9275219,22.9935475 19.8843089,22.5975475 20.6060508,21.8745282 C21.3239762,21.1580578 21.7239552,20.1831954 21.7161282,19.1689541 C21.7092551,18.2281148 21.3553631,17.3229154 20.722296,16.6268897 C20.2774303,16.1297104 19.7108567,15.7568372 19.0782573,15.5449155" id="Shape" stroke-width="0.5"></path>
        </g>
        <rect id="Rectangle-Copy" x="0" y="0" width="250" height="100"></rect>
    </g>
</svg>