<?xml version="1.0" encoding="UTF-8"?>
<svg width="250px" height="100px" viewBox="0 0 250 100" version="1.1" xmlns="http://www.w3.org/2000/svg" xmlns:xlink="http://www.w3.org/1999/xlink">
    <!-- Generator: Sketch 49.2 (51160) - http://www.bohemiancoding.com/sketch -->
    <title>focus</title>
    <desc>Created with Sketch.</desc>
    <defs></defs>
    <g id="focus" stroke="none" stroke-width="1" fill="none" fill-rule="evenodd">
        <path d="M70.4408422,39.1459127 L82.7167995,39.1459127 L82.7167995,42.3733015 L66.5996555,42.3733015 L66.5996555,14 L70.4408422,14 L70.4408422,39.1459127 Z M101.130736,42.3733015 L99.566541,42.3733015 C99.2233405,42.3733015 98.9461442,42.3205022 98.7349439,42.214902 C98.5237436,42.1093018 98.3851454,41.8849049 98.3191453,41.5417043 L97.9231467,39.6805108 C97.3951459,40.1557115 96.8803528,40.5814058 96.3787521,40.9576064 C95.8771513,41.3338069 95.3491584,41.6506027 94.7947576,41.9080031 C94.2403567,42.1654035 93.6496647,42.3601008 93.0226637,42.492101 C92.3956628,42.6241012 91.6993722,42.6901003 90.933771,42.6901003 C90.1549698,42.6901003 89.4256796,42.5812018 88.7458786,42.3634015 C88.0660776,42.1456012 87.4753855,41.8189056 86.9737847,41.3833049 C86.472184,40.9477042 86.0728894,40.3966116 85.7758889,39.7300106 C85.4788885,39.0634096 85.3303905,38.2747202 85.3303905,37.3639188 C85.3303905,36.5719176 85.5481875,35.8096279 85.9837882,35.0770268 C86.4193888,34.3444257 87.1222794,33.6943344 88.0924809,33.1267336 C89.0626823,32.5591327 90.3331652,32.093839 91.9039676,31.7308384 C93.47477,31.3678379 95.3953441,31.1599407 97.6657476,31.1071406 L97.6657476,29.542946 C97.6657476,27.9853436 97.3324521,26.8072595 96.6658511,26.0086583 C95.9992501,25.2100571 95.0125634,24.8107625 93.7057614,24.8107625 C92.8477601,24.8107625 92.1250698,24.919661 91.5376689,25.1374613 C90.950268,25.3552616 90.4420748,25.5994584 90.0130742,25.8700588 C89.5840735,26.1406592 89.2144785,26.3848559 88.904278,26.6026562 C88.5940776,26.8204566 88.2871817,26.9293551 87.9835812,26.9293551 C87.7459809,26.9293551 87.5380837,26.8666559 87.3598834,26.7412557 C87.1816831,26.6158556 87.039785,26.4607576 86.9341849,26.2759574 L86.3005871,25.1473613 C87.4093888,24.0781596 88.6039727,23.2795704 89.8843746,22.7515696 C91.1647766,22.2235688 92.5837575,21.9595724 94.1413598,21.9595724 C95.2633616,21.9595724 96.2599481,22.1443699 97.1311495,22.5139704 C98.0023508,22.883571 98.7349409,23.3983641 99.3289418,24.0583651 C99.9229427,24.7183661 100.371737,25.5169553 100.675337,26.4541567 C100.978938,27.3913582 101.130736,28.4209443 101.130736,29.542946 L101.130736,42.3733015 Z M91.9831673,40.2151089 C92.6035683,40.2151089 93.1711606,40.1524098 93.6859614,40.0270096 C94.2007622,39.9016094 94.6858557,39.7234118 95.1412564,39.4924115 C95.5966571,39.2614111 96.0322512,38.9809149 96.4480518,38.6509144 C96.8638525,38.3209139 97.269747,37.9447189 97.6657476,37.5223183 L97.6657476,33.3445328 C96.0421451,33.3973329 94.6627637,33.5260312 93.527562,33.7306315 C92.3923602,33.9352318 91.4683727,34.2025282 90.7555716,34.5325287 C90.0427705,34.8625292 89.5246775,35.2519239 89.201277,35.7007246 C88.8778765,36.1495253 88.7161787,36.6511186 88.7161787,37.2055194 C88.7161787,37.7335202 88.8019775,38.1889141 88.9735778,38.5717147 C89.1451781,38.9545152 89.3761749,39.268011 89.6665754,39.5122114 C89.9569758,39.7564118 90.3001712,39.9346094 90.6961718,40.0468095 C91.0921724,40.1590097 91.5211666,40.2151089 91.9831673,40.2151089 Z M117.960677,25.6225596 C117.802277,25.9129601 117.55808,26.0581581 117.22808,26.0581581 C117.030079,26.0581581 116.805682,25.9855591 116.554882,25.8403589 C116.304082,25.6951587 115.997186,25.5334608 115.634185,25.3552606 C115.271185,25.1770603 114.83889,25.0120625 114.33729,24.8602623 C113.835689,24.708462 113.241697,24.6325631 112.555296,24.6325631 C111.961295,24.6325631 111.426702,24.708462 110.951501,24.8602623 C110.476301,25.0120625 110.070406,25.2199597 109.733806,25.4839601 C109.397205,25.7479605 109.139809,26.0548564 108.961608,26.4046569 C108.783408,26.7544574 108.694309,27.1339523 108.694309,27.543153 C108.694309,28.0579537 108.842807,28.486948 109.139808,28.8301485 C109.436808,29.173349 109.829503,29.470345 110.317904,29.7211454 C110.806304,29.9719458 111.360697,30.1930428 111.981098,30.3844431 C112.601499,30.5758434 113.23839,30.7804406 113.891791,30.998241 C114.545192,31.2160413 115.182084,31.456938 115.802485,31.7209384 C116.422886,31.9849389 116.977278,32.3149344 117.465679,32.710935 C117.95408,33.1069356 118.346774,33.5920291 118.643775,34.16623 C118.940775,34.7404308 119.089273,35.4301215 119.089273,36.2353228 C119.089273,37.1593242 118.924275,38.0140127 118.594275,38.7994139 C118.264274,39.5848151 117.775881,40.2646059 117.12908,40.8388068 C116.482279,41.4130077 115.69029,41.8651016 114.753088,42.1951021 C113.815887,42.5251026 112.733501,42.6901003 111.5059,42.6901003 C110.106697,42.6901003 108.839514,42.4624034 107.704313,42.0070027 C106.569111,41.551602 105.605524,40.9675099 104.813523,40.2547088 L105.64512,38.9083135 C105.75072,38.7367132 105.876118,38.604715 106.021319,38.5123149 C106.166519,38.4199147 106.357916,38.3737153 106.595517,38.3737153 C106.833117,38.3737153 107.083914,38.4661141 107.347914,38.6509144 C107.611914,38.8357147 107.93201,39.0403119 108.308211,39.2647122 C108.684411,39.4891126 109.139805,39.6937098 109.674406,39.8785101 C110.209007,40.0633104 110.878898,40.1557092 111.684099,40.1557092 C112.3705,40.1557092 112.971092,40.0666104 113.485893,39.8884101 C114.000693,39.7102098 114.429688,39.4693131 114.772888,39.1657126 C115.116089,38.8621121 115.370185,38.5123168 115.535186,38.1163162 C115.700186,37.7203156 115.782685,37.2979213 115.782685,36.8491206 C115.782685,36.2947198 115.634187,35.836026 115.337186,35.4730254 C115.040186,35.1100249 114.647491,34.799829 114.15909,34.5424286 C113.67069,34.2850283 113.112997,34.0606313 112.485996,33.869231 C111.858995,33.6778307 111.218804,33.4765334 110.565403,33.2653331 C109.912002,33.0541328 109.27181,32.813236 108.644809,32.5426356 C108.017809,32.2720352 107.460116,31.9321398 106.971715,31.5229391 C106.483315,31.1137385 106.09062,30.6088453 105.793619,30.0082444 C105.496619,29.4076435 105.348121,28.6783533 105.348121,27.820352 C105.348121,27.0547508 105.506519,26.3188607 105.823319,25.6126597 C106.14012,24.9064586 106.602114,24.2860669 107.209314,23.7514661 C107.816515,23.2168653 108.562305,22.791171 109.446707,22.4743706 C110.331108,22.1575701 111.340894,21.9991722 112.476096,21.9991722 C113.796098,21.9991722 114.980782,22.2070694 116.030184,22.62287 C117.079585,23.0386707 117.987073,23.609563 118.752674,24.3355641 L117.960677,25.6225596 Z M131.60283,21.9991722 C132.804032,21.9991722 133.912817,22.2004695 134.929218,22.6030701 C135.94562,23.0056707 136.823408,23.5864629 137.562609,24.3454641 C138.30181,25.1044652 138.879302,26.0416526 139.295103,27.1570543 C139.710904,28.272456 139.918801,29.5429389 139.918801,30.9685411 C139.918801,31.5229419 139.859402,31.8925369 139.740601,32.0773372 C139.621801,32.2621375 139.397404,32.3545362 139.067404,32.3545362 L125.72225,32.3545362 C125.74865,33.6217382 125.920248,34.7239233 126.237048,35.6611248 C126.553849,36.5983262 126.989443,37.3804157 127.543844,38.0074166 C128.098245,38.6344176 128.758236,39.1030113 129.523837,39.4132117 C130.289438,39.7234122 131.147427,39.8785101 132.097828,39.8785101 C132.982229,39.8785101 133.744519,39.7762115 134.38472,39.5716112 C135.024921,39.3670109 135.576014,39.1459138 136.038014,38.9083135 C136.500015,38.6707131 136.88611,38.4496161 137.19631,38.2450158 C137.506511,38.0404155 137.773807,37.9381169 137.998208,37.9381169 C138.288608,37.9381169 138.513005,38.0503153 138.671405,38.2747157 L139.661402,39.5617112 C139.225801,40.089712 138.704408,40.5484058 138.097207,40.9378064 C137.490006,41.327207 136.839915,41.6473027 136.146914,41.8981031 C135.453913,42.1489035 134.737823,42.3370009 133.998621,42.4624011 C133.25942,42.5878013 132.52683,42.6505005 131.800829,42.6505005 C130.414827,42.6505005 129.137744,42.4162036 127.969542,41.9476029 C126.801341,41.4790022 125.791554,40.7926115 124.940153,39.8884101 C124.088752,38.9842087 123.425461,37.8655238 122.95026,36.5323217 C122.475059,35.1991197 122.237462,33.6679403 122.237462,31.9387377 C122.237462,30.5395356 122.451959,29.2327532 122.88096,28.0183513 C123.309961,26.8039495 123.927052,25.7512636 124.732254,24.8602623 C125.537455,23.9692609 126.520842,23.2696703 127.682443,22.7614696 C128.844045,22.2532688 130.150828,21.9991722 131.60283,21.9991722 Z M131.682029,24.5929632 C129.979227,24.5929632 128.639445,25.0846566 127.662643,26.0680581 C126.685842,27.0514596 126.07865,28.4143412 125.84105,30.1567439 L136.750812,30.1567439 C136.750812,29.3383426 136.638613,28.5892527 136.414213,27.9094517 C136.189813,27.2296507 135.859817,26.6422586 135.424216,26.1472578 C134.988616,25.6522571 134.457323,25.2694622 133.830322,24.9988618 C133.203321,24.7282614 132.487231,24.5929632 131.682029,24.5929632 Z M144.413385,42.3733015 L144.413385,22.3159711 L146.432978,22.3159711 C146.815779,22.3159711 147.079775,22.3885701 147.224975,22.5337704 C147.370176,22.6789706 147.469174,22.9297672 147.521974,23.2861677 L147.759574,26.4145569 C148.445975,25.0153547 149.294063,23.9230695 150.303865,23.1376683 C151.313666,22.3522671 152.49835,21.9595724 153.857952,21.9595724 C154.412353,21.9595724 154.913947,22.0222715 155.362747,22.1476717 C155.811548,22.2730719 156.227342,22.4479695 156.610143,22.6723699 L156.154744,25.3057607 C156.062344,25.6357612 155.857747,25.800759 155.540947,25.800759 C155.356146,25.800759 155.07235,25.7380599 154.68955,25.6126597 C154.306749,25.4872595 153.772156,25.4245603 153.085755,25.4245603 C151.858153,25.4245603 150.831867,25.7809555 150.006866,26.4937566 C149.181865,27.2065577 148.492174,28.2427437 147.937773,29.6023458 L147.937773,42.3733015 L144.413385,42.3733015 Z M186.19124,30.691342 L178.330667,30.691342 L178.330667,38.9875132 L174.865679,38.9875132 L174.865679,30.691342 L167.044707,30.691342 L167.044707,27.4837532 L174.865679,27.4837532 L174.865679,19.2073819 L178.330667,19.2073819 L178.330667,27.4837532 L186.19124,27.4837532 L186.19124,30.691342 Z M26.7599939,77.5731792 L26.7599939,68.1022121 L25.5279982,67.9592126 C25.3739979,67.9225459 25.2474996,67.8657133 25.1484995,67.7887132 C25.0494993,67.7117131 25,67.5998812 25,67.4532143 L25,66.6502171 L26.7599939,66.6502171 L26.7599939,65.5722209 C26.7599939,64.9342199 26.849826,64.3677275 27.029493,63.8727268 C27.2091599,63.377726 27.4658231,62.9597317 27.7994903,62.6187311 C28.1331575,62.2777306 28.534652,62.0192341 29.0039861,61.8432338 C29.4733201,61.6672336 30.001313,61.5792347 30.5879806,61.5792347 C31.086648,61.5792347 31.5486418,61.6525671 31.9739758,61.799234 L31.9299759,62.7782306 C31.9226426,62.9248975 31.8603101,63.0128963 31.7429766,63.0422297 C31.6256431,63.071563 31.4606453,63.0862295 31.2479783,63.0862295 L30.9069795,63.0862295 C30.5696456,63.0862295 30.2634831,63.1302289 29.9884827,63.218229 C29.7134823,63.3062292 29.4769854,63.4492273 29.2789851,63.6472276 C29.0809848,63.8452279 28.9288202,64.1055577 28.8224867,64.4282248 C28.7161532,64.750892 28.6629873,65.1505533 28.6629873,65.6272207 L28.6629873,66.6502171 L31.8859761,66.6502171 L31.8859761,68.0692122 L28.728987,68.0692122 L28.728987,77.5731792 L26.7599939,77.5731792 Z M35.4279638,66.4302179 L35.4279638,73.5361932 C35.4279638,74.3795278 35.6222945,75.0321857 36.0109618,75.4941864 C36.399629,75.9561871 36.9862878,76.187184 37.7709556,76.187184 C38.3429565,76.187184 38.8819493,76.0515192 39.38795,75.7801854 C39.8939508,75.5088517 40.3596112,75.1311901 40.7849452,74.6471894 L40.7849452,66.4302179 L42.7429384,66.4302179 L42.7429384,77.5731792 L41.5769424,77.5731792 C41.2982753,77.5731792 41.1222777,77.4375144 41.0489443,77.1661806 L40.8949448,75.9671848 C40.4109441,76.5025189 39.8682847,76.9333464 39.2669504,77.2596803 C38.6656162,77.5860141 37.9762921,77.7491786 37.1989576,77.7491786 C36.59029,77.7491786 36.0531306,77.6483466 35.5874632,77.4466796 C35.1217958,77.2450127 34.7313011,76.9608498 34.4159673,76.5941826 C34.1006335,76.2275154 33.8641367,75.7838547 33.7064698,75.2631872 C33.5488029,74.7425198 33.4699706,74.1668608 33.4699706,73.5361932 L33.4699706,66.4302179 L35.4279638,66.4302179 Z M48.1439196,61.3702355 L48.1439196,77.5731792 L46.1859264,77.5731792 L46.1859264,61.3702355 L48.1439196,61.3702355 Z M53.7759001,61.3702355 L53.7759001,77.5731792 L51.8179069,77.5731792 L51.8179069,61.3702355 L53.7759001,61.3702355 Z M67.8558511,68.2672115 C67.767851,68.4285451 67.6321862,68.5092107 67.4488526,68.5092107 C67.3388524,68.5092107 67.2141874,68.4688779 67.0748539,68.3882111 C66.9355203,68.3075443 66.7650226,68.2177122 66.5633556,68.118712 C66.3616887,68.0197119 66.1215252,67.9280464 65.8428581,67.843713 C65.564191,67.7593795 65.2341955,67.7172134 64.8528616,67.7172134 C64.5228611,67.7172134 64.2258651,67.7593795 63.9618647,67.843713 C63.6978643,67.9280464 63.4723673,68.0435449 63.285367,68.1902118 C63.0983667,68.3368787 62.9553687,68.5073764 62.8563685,68.70171 C62.7573684,68.8960436 62.707869,69.1068741 62.707869,69.3342078 C62.707869,69.6202082 62.7903679,69.8585384 62.9553682,70.0492053 C63.1203684,70.2398723 63.3385321,70.4048701 63.6098659,70.5442036 C63.8811996,70.6835371 64.1891955,70.8063688 64.5338627,70.9127023 C64.8785299,71.0190358 65.2323584,71.132701 65.595359,71.2537011 C65.9583596,71.3747013 66.3121881,71.5085329 66.6568553,71.6551997 C67.0015225,71.8018666 67.3095184,71.9851975 67.5808521,72.2051978 C67.8521859,72.4251982 68.0703496,72.6946945 68.2353498,73.013695 C68.4003501,73.3326955 68.482849,73.715857 68.482849,74.163191 C68.482849,74.6765252 68.3911835,75.1513521 68.2078499,75.5876861 C68.0245163,76.0240201 67.7531866,76.4016817 67.3938528,76.7206822 C67.0345189,77.0396826 66.5945248,77.2908459 66.0738573,77.4741795 C65.5531899,77.6575131 64.9518646,77.7491786 64.2698636,77.7491786 C63.4925291,77.7491786 62.7885386,77.6226803 62.1578709,77.3696799 C61.5272033,77.1166795 60.9918772,76.7921839 60.5518765,76.3961833 L61.0138749,75.6481859 C61.0725417,75.5528524 61.1422074,75.4795201 61.2228742,75.4281866 C61.303541,75.3768532 61.4098729,75.3511869 61.5418731,75.3511869 C61.6738733,75.3511869 61.8132047,75.4025195 61.9598716,75.5051864 C62.1065385,75.6078532 62.2843695,75.7215183 62.4933698,75.8461852 C62.7023701,75.970852 62.9553667,76.0845172 63.2523671,76.187184 C63.5493676,76.2898508 63.9215292,76.3411835 64.3688633,76.3411835 C64.7501972,76.3411835 65.0838593,76.2916841 65.3698598,76.192684 C65.6558602,76.0936838 65.8941903,75.9598523 66.0848573,75.7911854 C66.2755243,75.6225185 66.416689,75.4281877 66.5083558,75.2081874 C66.6000226,74.9881871 66.6458554,74.7535236 66.6458554,74.5041898 C66.6458554,74.1961894 66.5633565,73.9413595 66.3983562,73.7396925 C66.233356,73.5380255 66.0151922,73.3656945 65.7438585,73.2226943 C65.4725247,73.0796941 65.1626956,72.9550291 64.8143617,72.8486956 C64.4660278,72.7423621 64.110366,72.6305303 63.7473654,72.5131968 C63.3843649,72.3958633 63.028703,72.2620317 62.6803691,72.1116982 C62.3320353,71.9613646 62.0222061,71.7725338 61.7508724,71.5452001 C61.4795386,71.3178664 61.2613749,71.0373702 61.0963746,70.703703 C60.9313744,70.3700359 60.8488755,69.9648747 60.8488755,69.4882073 C60.8488755,69.0628733 60.9368743,68.6540455 61.1128746,68.2617115 C61.2888748,67.8693776 61.545538,67.5247156 61.8828719,67.2277151 C62.2202057,66.9307147 62.6345335,66.6942179 63.1258676,66.5182176 C63.6172017,66.3422173 64.1781941,66.2542185 64.8088617,66.2542185 C65.5421962,66.2542185 66.200354,66.3697169 66.7833549,66.6007173 C67.3663558,66.8317177 67.8705156,67.14888 68.2958496,67.552214 L67.8558511,68.2672115 Z M75.4348248,66.2542185 C76.1021592,66.2542185 76.7181509,66.3660503 77.2828184,66.5897173 C77.8474859,66.8133843 78.335146,67.1360467 78.7458133,67.557714 C79.1564806,67.9793813 79.4773096,68.5000409 79.70831,69.1197086 C79.9393103,69.7393762 80.0548088,70.4452 80.0548088,71.2372012 C80.0548088,71.5452017 80.0218092,71.7505322 79.9558091,71.8531991 C79.889809,71.9558659 79.765144,72.0071985 79.5818104,72.0071985 L72.1678362,72.0071985 C72.1825029,72.7111996 72.2778349,73.3235247 72.4538352,73.8441921 C72.6298354,74.3648596 72.8718322,74.7993537 73.1798327,75.1476876 C73.4878331,75.4960215 73.8544949,75.7563513 74.2798288,75.9286849 C74.7051628,76.1010185 75.1818231,76.187184 75.7098239,76.187184 C76.201158,76.187184 76.6246522,76.1303514 76.9803195,76.0166846 C77.3359867,75.9030178 77.6421492,75.7801861 77.8988163,75.6481859 C78.1554833,75.5161857 78.3699804,75.393354 78.542314,75.2796872 C78.7146476,75.1660203 78.8631456,75.1091877 78.9878125,75.1091877 C79.1491461,75.1091877 79.273811,75.1715202 79.3618112,75.2961871 L79.9118093,76.0111846 C79.6698089,76.3045184 79.3801461,76.5593483 79.0428123,76.775682 C78.7054784,76.9920156 78.3443166,77.1698466 77.9593161,77.3091801 C77.5743155,77.4485137 77.1764875,77.5530122 76.7658202,77.622679 C76.3551529,77.6923458 75.9481584,77.7271787 75.5448244,77.7271787 C74.7748233,77.7271787 74.0653328,77.5970137 73.4163318,77.33668 C72.7673308,77.0763463 72.2063384,76.6950181 71.7333377,76.192684 C71.260337,75.6903499 70.8918419,75.0688583 70.6278415,74.3281905 C70.3638411,73.5875227 70.2318429,72.7368675 70.2318429,71.7761993 C70.2318429,70.9988648 70.351008,70.2728746 70.5893417,69.5982069 C70.8276754,68.9235392 71.1705041,68.3387137 71.6178381,67.843713 C72.0651721,67.3487122 72.6114981,66.9600508 73.2568324,66.677717 C73.9021667,66.3953833 74.6281569,66.2542185 75.4348248,66.2542185 Z M75.4788247,67.6952135 C74.5328232,67.6952135 73.7884999,67.9683765 73.2458324,68.5147107 C72.7031649,69.0610448 72.3658361,69.8182013 72.2338359,70.7862028 L78.2948149,70.7862028 C78.2948149,70.3315354 78.2324824,69.9153743 78.1078155,69.5377071 C77.9831487,69.1600399 77.7998178,68.8337109 77.5578174,68.5587105 C77.3158171,68.2837101 77.0206544,68.0710463 76.6723205,67.9207127 C76.3239867,67.7703792 75.9261587,67.6952135 75.4788247,67.6952135 Z M82.5518001,77.5731792 L82.5518001,66.4302179 L83.7177961,66.4302179 C83.9964631,66.4302179 84.1724608,66.5658827 84.2457942,66.8372165 L84.3997937,68.0472123 C84.8837944,67.5118781 85.4246205,67.0792173 86.022288,66.7492168 C86.6199556,66.4192163 87.311113,66.2542185 88.0957808,66.2542185 C88.7044484,66.2542185 89.2416079,66.3550505 89.7072753,66.5567175 C90.1729426,66.7583844 90.5616041,67.0443806 90.8732712,67.4147145 C91.1849383,67.7850484 91.4214352,68.2305424 91.5827687,68.7512098 C91.7441023,69.2718773 91.8247679,69.8475362 91.8247679,70.4782038 L91.8247679,77.5731792 L89.8667747,77.5731792 L89.8667747,70.4782038 C89.8667747,69.6348692 89.6742773,68.980378 89.2892767,68.5147107 C88.9042761,68.0490433 88.315784,67.8162131 87.5237828,67.8162131 C86.9444486,67.8162131 86.4036226,67.9555445 85.9012885,68.2342116 C85.3989544,68.5128787 84.9351273,68.8905403 84.5097933,69.3672077 L84.5097933,77.5731792 L82.5518001,77.5731792 Z M101.163735,68.2672115 C101.075735,68.4285451 100.94007,68.5092107 100.756737,68.5092107 C100.646737,68.5092107 100.522072,68.4688779 100.382738,68.3882111 C100.243405,68.3075443 100.072907,68.2177122 99.8712399,68.118712 C99.669573,68.0197119 99.4294095,67.9280464 99.1507425,67.843713 C98.8720754,67.7593795 98.5420798,67.7172134 98.1607459,67.7172134 C97.8307454,67.7172134 97.5337494,67.7593795 97.269749,67.843713 C97.0057486,67.9280464 96.7802516,68.0435449 96.5932513,68.1902118 C96.406251,68.3368787 96.263253,68.5073764 96.1642528,68.70171 C96.0652527,68.8960436 96.0157533,69.1068741 96.0157533,69.3342078 C96.0157533,69.6202082 96.0982522,69.8585384 96.2632525,70.0492053 C96.4282527,70.2398723 96.6464165,70.4048701 96.9177502,70.5442036 C97.189084,70.6835371 97.4970798,70.8063688 97.841747,70.9127023 C98.1864142,71.0190358 98.5402428,71.132701 98.9032433,71.2537011 C99.2662439,71.3747013 99.6200724,71.5085329 99.9647396,71.6551997 C100.309407,71.8018666 100.617403,71.9851975 100.888736,72.2051978 C101.16007,72.4251982 101.378234,72.6946945 101.543234,73.013695 C101.708234,73.3326955 101.790733,73.715857 101.790733,74.163191 C101.790733,74.6765252 101.699068,75.1513521 101.515734,75.5876861 C101.332401,76.0240201 101.061071,76.4016817 100.701737,76.7206822 C100.342403,77.0396826 99.9024091,77.2908459 99.3817416,77.4741795 C98.8610742,77.6575131 98.259749,77.7491786 97.5777479,77.7491786 C96.8004134,77.7491786 96.0964229,77.6226803 95.4657552,77.3696799 C94.8350876,77.1166795 94.2997615,76.7921839 93.8597608,76.3961833 L94.3217592,75.6481859 C94.380426,75.5528524 94.4500917,75.4795201 94.5307585,75.4281866 C94.6114253,75.3768532 94.7177572,75.3511869 94.8497574,75.3511869 C94.9817576,75.3511869 95.121089,75.4025195 95.2677559,75.5051864 C95.4144228,75.6078532 95.5922538,75.7215183 95.8012541,75.8461852 C96.0102544,75.970852 96.263251,76.0845172 96.5602514,76.187184 C96.8572519,76.2898508 97.2294136,76.3411835 97.6767476,76.3411835 C98.0580815,76.3411835 98.3917437,76.2916841 98.6777441,76.192684 C98.9637445,76.0936838 99.2020747,75.9598523 99.3927416,75.7911854 C99.5834086,75.6225185 99.7245733,75.4281877 99.8162401,75.2081874 C99.9079069,74.9881871 99.9537397,74.7535236 99.9537397,74.5041898 C99.9537397,74.1961894 99.8712408,73.9413595 99.7062405,73.7396925 C99.5412403,73.5380255 99.3230765,73.3656945 99.0517428,73.2226943 C98.780409,73.0796941 98.4705799,72.9550291 98.122246,72.8486956 C97.7739122,72.7423621 97.4182503,72.6305303 97.0552497,72.5131968 C96.6922492,72.3958633 96.3365873,72.2620317 95.9882534,72.1116982 C95.6399196,71.9613646 95.3300904,71.7725338 95.0587567,71.5452001 C94.7874229,71.3178664 94.5692592,71.0373702 94.4042589,70.703703 C94.2392587,70.3700359 94.1567598,69.9648747 94.1567598,69.4882073 C94.1567598,69.0628733 94.2447586,68.6540455 94.4207589,68.2617115 C94.5967591,67.8693776 94.8534224,67.5247156 95.1907562,67.2277151 C95.5280901,66.9307147 95.9424178,66.6942179 96.4337519,66.5182176 C96.925086,66.3422173 97.4860784,66.2542185 98.116746,66.2542185 C98.8500805,66.2542185 99.5082383,66.3697169 100.091239,66.6007173 C100.67424,66.8317177 101.1784,67.14888 101.603734,67.552214 L101.163735,68.2672115 Z M108.841709,66.2542185 C109.65571,66.2542185 110.390867,66.3898833 111.047201,66.6612171 C111.703535,66.9325508 112.260861,67.3175457 112.719195,67.8162131 C113.177529,68.3148805 113.529525,68.918039 113.775192,69.6257068 C114.020859,70.3333745 114.14369,71.1235306 114.14369,71.9961986 C114.14369,72.8761999 114.020859,73.6681892 113.775192,74.3721903 C113.529525,75.0761914 113.177529,75.6775166 112.719195,76.176184 C112.260861,76.6748515 111.703535,77.058013 111.047201,77.32568 C110.390867,77.5933471 109.65571,77.7271787 108.841709,77.7271787 C108.027708,77.7271787 107.292551,77.5933471 106.636216,77.32568 C105.979882,77.058013 105.420723,76.6748515 104.958722,76.176184 C104.496722,75.6775166 104.14106,75.0761914 103.891726,74.3721903 C103.642392,73.6681892 103.517727,72.8761999 103.517727,71.9961986 C103.517727,71.1235306 103.642392,70.3333745 103.891726,69.6257068 C104.14106,68.918039 104.496722,68.3148805 104.958722,67.8162131 C105.420723,67.3175457 105.979882,66.9325508 106.636216,66.6612171 C107.292551,66.3898833 108.027708,66.2542185 108.841709,66.2542185 Z M108.841709,76.198184 C109.94171,76.198184 110.763033,75.8296889 111.3057,75.0926878 C111.848368,74.3556867 112.119697,73.3272005 112.119697,72.0071985 C112.119697,70.6798632 111.848368,69.6458771 111.3057,68.9052093 C110.763033,68.1645415 109.94171,67.7942132 108.841709,67.7942132 C108.284375,67.7942132 107.800381,67.8895452 107.389714,68.0802122 C106.979047,68.2708791 106.636218,68.5458754 106.361217,68.9052093 C106.086217,69.2645432 105.880886,69.7063706 105.74522,70.2307047 C105.609553,70.7550388 105.54172,71.3471975 105.54172,72.0071985 C105.54172,72.6671995 105.609553,73.2575249 105.74522,73.7781924 C105.880886,74.2988598 106.086217,74.7370206 106.361217,75.0926878 C106.636218,75.448355 106.979047,75.721518 107.389714,75.912185 C107.800381,76.1028519 108.284375,76.198184 108.841709,76.198184 Z M116.563682,77.5731792 L116.563682,66.4302179 L117.685678,66.4302179 C117.898345,66.4302179 118.04501,66.4705507 118.125677,66.5512175 C118.206343,66.6318843 118.261343,66.7712157 118.290676,66.969216 L118.422676,68.70721 C118.804009,67.9298755 119.27517,67.3230503 119.836171,66.8867163 C120.397171,66.4503823 121.055329,66.2322186 121.810664,66.2322186 C122.118664,66.2322186 122.397327,66.2670514 122.646661,66.3367182 C122.895995,66.406385 123.126991,66.5035503 123.339658,66.6282172 L123.086659,68.0912121 C123.035326,68.2745457 122.921661,68.3662112 122.74566,68.3662112 C122.642994,68.3662112 122.485329,68.3313783 122.272662,68.2617115 C122.059995,68.1920448 121.762999,68.1572119 121.381665,68.1572119 C120.699664,68.1572119 120.129505,68.3552092 119.671171,68.7512098 C119.212837,69.1472104 118.829676,69.7228693 118.521675,70.4782038 L118.521675,77.5731792 L116.563682,77.5731792 Z M136.155714,67.550014 L136.155714,77.5731792 L132.546626,77.5731792 L132.546626,50.7761723 L140.456699,50.7761723 C142.152168,50.7761723 143.626332,50.9725196 144.879234,51.3652202 C146.132136,51.7579208 147.169972,52.3157966 147.992773,53.0388644 C148.815574,53.7619322 149.429549,54.6345871 149.834716,55.6568553 C150.239884,56.6791235 150.442464,57.8198082 150.442464,59.0789434 C150.442464,60.325612 150.224301,61.4662966 149.787967,62.5010315 C149.351633,63.5357665 148.712725,64.4271211 147.871223,65.1751223 C147.029722,65.9231234 145.985653,66.5059322 144.738984,66.9235662 C143.492316,67.3412002 142.064901,67.550014 140.456699,67.550014 L136.155714,67.550014 Z M136.155714,64.670224 L140.456699,64.670224 C141.491434,64.670224 142.404605,64.5330925 143.196239,64.2588254 C143.987874,63.9845583 144.651715,63.6012135 145.187783,63.1087794 C145.72385,62.6163453 146.129011,62.0273033 146.403278,61.3416356 C146.677545,60.6559679 146.814677,59.9017447 146.814677,59.0789434 C146.814677,57.3710075 146.287967,56.0370921 145.234532,55.0771573 C144.181097,54.1172225 142.588502,53.6372623 140.456699,53.6372623 L136.155714,53.6372623 L136.155714,64.670224 Z M178.249268,64.1840257 C178.249268,66.1911621 177.931372,68.0175042 177.295571,69.6631067 C176.65977,71.3087092 175.762182,72.7174235 174.60278,73.889292 C173.443379,75.0611604 172.053364,75.9680982 170.432695,76.6101325 C168.812026,77.2521668 167.01685,77.5731792 165.047114,77.5731792 L155.023948,77.5731792 L155.023948,50.7761723 L165.047114,50.7761723 C167.01685,50.7761723 168.812026,51.0971846 170.432695,51.7392189 C172.053364,52.3812532 173.443379,53.2913076 174.60278,54.4694094 C175.762182,55.6475112 176.65977,57.0593422 177.295571,58.7049447 C177.931372,60.3505472 178.249268,62.1768893 178.249268,64.1840257 Z M174.527981,64.1840257 C174.527981,62.5384232 174.303584,61.0673763 173.854783,59.770841 C173.405982,58.4743057 172.770191,57.3772538 171.94739,56.4796525 C171.124588,55.5820511 170.127268,54.8963937 168.9554,54.4226596 C167.783532,53.9489255 166.480782,53.7120621 165.047114,53.7120621 L158.670436,53.7120621 L158.670436,74.6372894 L165.047114,74.6372894 C166.480782,74.6372894 167.783532,74.4004259 168.9554,73.9266919 C170.127268,73.4529578 171.124588,72.770417 171.94739,71.879049 C172.770191,70.9876809 173.405982,69.8937457 173.854783,68.5972104 C174.303584,67.3006751 174.527981,65.8296282 174.527981,64.1840257 Z M205.233274,77.5731792 L202.428284,77.5731792 C202.10415,77.5731792 201.842353,77.4921469 201.642886,77.33008 C201.443419,77.1680131 201.293822,76.9623159 201.194088,76.7129822 L198.688297,70.2428047 L186.664238,70.2428047 L184.158447,76.7129822 C184.07118,76.9373825 183.921582,77.1368465 183.709649,77.3113801 C183.497715,77.4859137 183.235919,77.5731792 182.924251,77.5731792 L180.119261,77.5731792 L190.834324,50.7761723 L194.518211,50.7761723 L205.233274,77.5731792 Z M187.674035,67.6248137 L197.6785,67.6248137 L193.471015,56.7227516 C193.196748,56.0495506 192.928718,55.2080619 192.666918,54.1982604 C192.529784,54.7093945 192.395769,55.1800048 192.264869,55.6101055 C192.133969,56.0402061 192.006187,56.4173177 191.88152,56.7414515 L187.674035,67.6248137 Z M225.130005,50.7761723 L225.130005,53.730762 L212.26445,53.730762 L212.26445,63.0994295 L223.260011,63.0994295 L223.260011,66.0540192 L212.26445,66.0540192 L212.26445,77.5731792 L208.617962,77.5731792 L208.617962,50.7761723 L225.130005,50.7761723 Z" id="Laser-+-full-sensor" fill="#FFFFFF"></path>
        <rect id="Rectangle-Copy" x="0" y="0" width="250" height="100"></rect>
    </g>
</svg>