<?xml version="1.0" encoding="UTF-8"?>
<svg width="250px" height="100px" viewBox="0 0 250 100" version="1.1" xmlns="http://www.w3.org/2000/svg" xmlns:xlink="http://www.w3.org/1999/xlink">
    <!-- Generator: Sketch 49.2 (51160) - http://www.bohemiancoding.com/sketch -->
    <title>front</title>
    <desc>Created with Sketch.</desc>
    <defs></defs>
    <g id="front" stroke="none" stroke-width="1" fill="none" fill-rule="evenodd">
        <path d="M45.1437882,68.2001339 C43.3486106,68.2001339 41.7074556,67.9625404 40.2202741,67.4873463 C38.7330926,67.0121522 37.4571276,66.325771 36.3923408,65.4281822 C35.3275541,64.5305934 34.4959769,63.4482231 33.8975843,62.1810388 C33.2991918,60.9138546 33,59.4882937 33,57.9043134 C33,56.5315305 33.1979946,55.308364 33.5939896,54.2347774 C33.9899847,53.1611908 34.5487694,52.2284163 35.2703604,51.4364262 C35.9919514,50.644436 36.8499279,49.9844542 37.8443155,49.4564607 C38.8387032,48.9284673 39.9342731,48.5324782 41.1310582,48.2684814 C40.0398718,47.9516854 39.0718983,47.5204972 38.2271089,46.974904 C37.3823194,46.4293108 36.6739388,45.7781286 36.1019459,45.0213381 C35.529953,44.2645475 35.094365,43.4241705 34.7951687,42.500182 C34.4959724,41.5761935 34.3463765,40.5862207 34.3463765,39.5302338 C34.3463765,38.2102502 34.5971696,36.9694843 35.0987634,35.8078987 C35.6003572,34.6463132 36.3175375,33.6343409 37.2503259,32.7719517 C38.1831143,31.9095624 39.3138833,31.231981 40.6426667,30.7391871 C41.9714502,30.2463932 43.471809,30 45.1437882,30 C46.7981677,30 48.2897267,30.2463932 49.6185102,30.7391871 C50.9472937,31.231981 52.0824625,31.9095624 53.0240508,32.7719517 C53.9656391,33.6343409 54.6872193,34.6463132 55.1888131,35.8078987 C55.6904068,36.9694843 55.9412,38.2102502 55.9412,39.5302338 C55.9412,40.5862207 55.7916041,41.5761935 55.4924078,42.500182 C55.1932115,43.4241705 54.7532236,44.2645475 54.1724308,45.0213381 C53.591638,45.7781286 52.8788576,46.4293108 52.0340681,46.974904 C51.1892786,47.5204972 50.2213052,47.9516854 49.1301187,48.2684814 C50.3269038,48.5324782 51.4224738,48.9284673 52.4168614,49.4564607 C53.411249,49.9844542 54.2692255,50.644436 54.9908165,51.4364262 C55.7124076,52.2284163 56.2755921,53.1611908 56.6803871,54.2347774 C57.085182,55.308364 57.2875765,56.5315305 57.2875765,57.9043134 C57.2875765,59.4882937 56.9883847,60.9138546 56.3899921,62.1810388 C55.7915996,63.4482231 54.9600224,64.5305934 53.8952356,65.4281822 C52.8304489,66.325771 51.5544839,67.0121522 50.0673024,67.4873463 C48.5801209,67.9625404 46.9389659,68.2001339 45.1437882,68.2001339 Z M45.1437882,66.1937689 C46.5693705,66.1937689 47.8673349,65.9957743 49.0377203,65.5997792 C50.2081058,65.2037841 51.2156781,64.6405996 52.0604676,63.9102087 C52.9052571,63.1798178 53.5564393,62.3042418 54.0140336,61.2834545 C54.4716279,60.2626672 54.7004216,59.1274983 54.7004216,57.8779139 C54.7004216,56.2411342 54.4012298,54.8771717 53.8028372,53.7859852 C53.2044447,52.6947988 52.4388657,51.8236227 51.5060773,51.1724308 C50.5732889,50.5212389 49.5437171,50.0592516 48.4173312,49.786455 C47.2909452,49.5136584 46.1997751,49.3772621 45.1437882,49.3772621 C44.0878014,49.3772621 42.9966313,49.5136584 41.8702453,49.786455 C40.7438593,50.0592516 39.7142876,50.5212389 38.7814992,51.1724308 C37.8487108,51.8236227 37.0831318,52.6947988 36.4847392,53.7859852 C35.8863467,54.8771717 35.5871549,56.2411342 35.5871549,57.8779139 C35.5871549,59.1274983 35.8159486,60.2626672 36.2735429,61.2834545 C36.7311372,62.3042418 37.3779195,63.1798178 38.2139091,63.9102087 C39.0498987,64.6405996 40.057471,65.2037841 41.2366564,65.5997792 C42.4158417,65.9957743 43.718206,66.1937689 45.1437882,66.1937689 Z M45.1437882,47.3444975 C46.5693705,47.3444975 47.8057366,47.1289035 48.8529236,46.6977088 C49.9001105,46.2665142 50.7668868,45.6857301 51.4532782,44.9553392 C52.1396697,44.2249483 52.6456558,43.3933711 52.9712517,42.4605827 C53.2968477,41.5277943 53.4596432,40.5598209 53.4596432,39.5566334 C53.4596432,38.4830467 53.2748483,37.4842741 52.9052529,36.5602856 C52.5356575,35.6362971 51.9944723,34.8311192 51.2816812,34.1447277 C50.5688901,33.4583363 49.697714,32.921551 48.6681268,32.5343558 C47.6385396,32.1471606 46.4637718,31.9535659 45.1437882,31.9535659 C43.8238047,31.9535659 42.644637,32.1471606 41.6062499,32.5343558 C40.5678628,32.921551 39.6922869,33.4583363 38.9794957,34.1447277 C38.2667046,34.8311192 37.7255194,35.6362971 37.355924,36.5602856 C36.9863286,37.4842741 36.8015337,38.4830467 36.8015337,39.5566334 C36.8015337,40.5598209 36.9643292,41.5277943 37.2899252,42.4605827 C37.6155211,43.3933711 38.1215073,44.2249483 38.8078987,44.9553392 C39.4942902,45.6857301 40.3610664,46.2665142 41.4082534,46.6977088 C42.4554404,47.1289035 43.7006062,47.3444975 45.1437882,47.3444975 Z M72.9381036,60.9402605 C73.061302,61.1514578 73.1690991,61.3736517 73.2614979,61.6068488 C73.3538968,61.8400459 73.4440943,62.0754395 73.5320932,62.3130365 C73.6200921,62.0666396 73.7124896,61.8312461 73.8092884,61.6068488 C73.9060872,61.3824516 74.0160842,61.1558579 74.1392826,60.9270607 L80.541171,49.2980635 C80.6555696,49.095666 80.7743663,48.9724694 80.8975648,48.9284699 C81.0207633,48.8844705 81.1967584,48.8624711 81.4255556,48.8624711 L83.3131227,48.8624711 L83.3131227,67.7777412 L81.0691618,67.7777412 L81.0691618,53.8783836 C81.0691618,53.6935859 81.0735617,53.4955913 81.0823616,53.284394 C81.0911615,53.0731966 81.1043611,52.8576025 81.1219609,52.6376052 L74.6408739,64.464599 C74.4208766,64.8605941 74.1128851,65.0585887 73.71689,65.0585887 L73.3472964,65.0585887 C72.9513014,65.0585887 72.6433098,64.8605941 72.4233126,64.464599 L65.7970281,52.5980059 C65.8234278,52.8268031 65.8432272,53.0511969 65.8564271,53.2711942 C65.8696269,53.4911915 65.8762267,53.6935859 65.8762267,53.8783836 L65.8762267,67.7777412 L63.6322659,67.7777412 L63.6322659,48.8624711 L65.5198329,48.8624711 C65.7486301,48.8624711 65.9246253,48.8844705 66.0478237,48.9284699 C66.1710222,48.9724694 66.2898189,49.095666 66.4042175,49.2980635 L72.9381036,60.9402605 Z M91.611378,60.7026646 L91.611378,67.7777412 L89.0638224,67.7777412 L89.0638224,48.8624711 L94.647325,48.8624711 C95.8441101,48.8624711 96.8846816,49.0010673 97.7690706,49.2782638 C98.6534596,49.5554604 99.3860395,49.9492496 99.9668323,50.4596432 C100.547625,50.9700369 100.981013,51.58602 101.26701,52.307611 C101.553006,53.029202 101.696002,53.8343799 101.696002,54.7231689 C101.696002,55.6031579 101.542006,56.4083358 101.23401,57.1387268 C100.926014,57.8691177 100.475026,58.4983004 99.8810338,59.0262938 C99.2870412,59.5542873 98.5500614,59.965676 97.6700723,60.2604723 C96.7900833,60.5552687 95.7825109,60.7026646 94.647325,60.7026646 L91.611378,60.7026646 Z M91.611378,58.6699001 L94.647325,58.6699001 C95.3777159,58.6699001 96.0222983,58.5731027 96.5810913,58.3795051 C97.1398844,58.1859075 97.6084715,57.915315 97.9868668,57.5677193 C98.3652621,57.2201236 98.6512542,56.804335 98.8448518,56.320341 C99.0384494,55.836347 99.1352468,55.3039617 99.1352468,54.7231689 C99.1352468,53.5175839 98.763457,52.5760097 98.0198662,51.8984181 C97.2762755,51.2208266 96.1521063,50.8820359 94.647325,50.8820359 L91.611378,50.8820359 L91.611378,58.6699001 Z M124.925397,44.6913438 L124.925397,53.1457964 L132.983857,53.1457964 L132.983857,55.8187498 L124.925397,55.8187498 L124.925397,64.3326013 L122.034647,64.3326013 L122.034647,55.8187498 L114.015787,55.8187498 L114.015787,53.1457964 L122.034647,53.1457964 L122.034647,44.6913438 L124.925397,44.6913438 Z M159.71779,68.2001339 C157.922613,68.2001339 156.281458,67.9625404 154.794276,67.4873463 C153.307095,67.0121522 152.03113,66.325771 150.966343,65.4281822 C149.901556,64.5305934 149.069979,63.4482231 148.471587,62.1810388 C147.873194,60.9138546 147.574002,59.4882937 147.574002,57.9043134 C147.574002,56.5315305 147.771997,55.308364 148.167992,54.2347774 C148.563987,53.1611908 149.122772,52.2284163 149.844363,51.4364262 C150.565954,50.644436 151.42393,49.9844542 152.418318,49.4564607 C153.412705,48.9284673 154.508275,48.5324782 155.70506,48.2684814 C154.613874,47.9516854 153.6459,47.5204972 152.801111,46.974904 C151.956322,46.4293108 151.247941,45.7781286 150.675948,45.0213381 C150.103955,44.2645475 149.668367,43.4241705 149.369171,42.500182 C149.069975,41.5761935 148.920379,40.5862207 148.920379,39.5302338 C148.920379,38.2102502 149.171172,36.9694843 149.672766,35.8078987 C150.174359,34.6463132 150.89154,33.6343409 151.824328,32.7719517 C152.757116,31.9095624 153.887885,31.231981 155.216669,30.7391871 C156.545452,30.2463932 158.045811,30 159.71779,30 C161.37217,30 162.863729,30.2463932 164.192512,30.7391871 C165.521296,31.231981 166.656465,31.9095624 167.598053,32.7719517 C168.539641,33.6343409 169.261221,34.6463132 169.762815,35.8078987 C170.264409,36.9694843 170.515202,38.2102502 170.515202,39.5302338 C170.515202,40.5862207 170.365606,41.5761935 170.06641,42.500182 C169.767214,43.4241705 169.327226,44.2645475 168.746433,45.0213381 C168.16564,45.7781286 167.45286,46.4293108 166.60807,46.974904 C165.763281,47.5204972 164.795307,47.9516854 163.704121,48.2684814 C164.900906,48.5324782 165.996476,48.9284673 166.990864,49.4564607 C167.985251,49.9844542 168.843228,50.644436 169.564819,51.4364262 C170.28641,52.2284163 170.849594,53.1611908 171.254389,54.2347774 C171.659184,55.308364 171.861579,56.5315305 171.861579,57.9043134 C171.861579,59.4882937 171.562387,60.9138546 170.963994,62.1810388 C170.365602,63.4482231 169.534025,64.5305934 168.469238,65.4281822 C167.404451,66.325771 166.128486,67.0121522 164.641305,67.4873463 C163.154123,67.9625404 161.512968,68.2001339 159.71779,68.2001339 Z M159.71779,66.1937689 C161.143373,66.1937689 162.441337,65.9957743 163.611722,65.5997792 C164.782108,65.2037841 165.78968,64.6405996 166.63447,63.9102087 C167.479259,63.1798178 168.130441,62.3042418 168.588036,61.2834545 C169.04563,60.2626672 169.274424,59.1274983 169.274424,57.8779139 C169.274424,56.2411342 168.975232,54.8771717 168.376839,53.7859852 C167.778447,52.6947988 167.012868,51.8236227 166.080079,51.1724308 C165.147291,50.5212389 164.117719,50.0592516 162.991333,49.786455 C161.864947,49.5136584 160.773777,49.3772621 159.71779,49.3772621 C158.661804,49.3772621 157.570633,49.5136584 156.444247,49.786455 C155.317861,50.0592516 154.28829,50.5212389 153.355501,51.1724308 C152.422713,51.8236227 151.657134,52.6947988 151.058741,53.7859852 C150.460349,54.8771717 150.161157,56.2411342 150.161157,57.8779139 C150.161157,59.1274983 150.389951,60.2626672 150.847545,61.2834545 C151.305139,62.3042418 151.951922,63.1798178 152.787911,63.9102087 C153.623901,64.6405996 154.631473,65.2037841 155.810659,65.5997792 C156.989844,65.9957743 158.292208,66.1937689 159.71779,66.1937689 Z M159.71779,47.3444975 C161.143373,47.3444975 162.379739,47.1289035 163.426926,46.6977088 C164.474113,46.2665142 165.340889,45.6857301 166.02728,44.9553392 C166.713672,44.2249483 167.219658,43.3933711 167.545254,42.4605827 C167.87085,41.5277943 168.033645,40.5598209 168.033645,39.5566334 C168.033645,38.4830467 167.84885,37.4842741 167.479255,36.5602856 C167.10966,35.6362971 166.568474,34.8311192 165.855683,34.1447277 C165.142892,33.4583363 164.271716,32.921551 163.242129,32.5343558 C162.212542,32.1471606 161.037774,31.9535659 159.71779,31.9535659 C158.397807,31.9535659 157.218639,32.1471606 156.180252,32.5343558 C155.141865,32.921551 154.266289,33.4583363 153.553498,34.1447277 C152.840707,34.8311192 152.299522,35.6362971 151.929926,36.5602856 C151.560331,37.4842741 151.375536,38.4830467 151.375536,39.5566334 C151.375536,40.5598209 151.538331,41.5277943 151.863927,42.4605827 C152.189523,43.3933711 152.695509,44.2249483 153.381901,44.9553392 C154.068292,45.6857301 154.935069,46.2665142 155.982256,46.6977088 C157.029443,47.1289035 158.274608,47.3444975 159.71779,47.3444975 Z M187.512106,60.9402605 C187.635304,61.1514578 187.743101,61.3736517 187.8355,61.6068488 C187.927899,61.8400459 188.018096,62.0754395 188.106095,62.3130365 C188.194094,62.0666396 188.286492,61.8312461 188.383291,61.6068488 C188.480089,61.3824516 188.590086,61.1558579 188.713285,60.9270607 L195.115173,49.2980635 C195.229572,49.095666 195.348368,48.9724694 195.471567,48.9284699 C195.594765,48.8844705 195.770761,48.8624711 195.999558,48.8624711 L197.887125,48.8624711 L197.887125,67.7777412 L195.643164,67.7777412 L195.643164,53.8783836 C195.643164,53.6935859 195.647564,53.4955913 195.656364,53.284394 C195.665164,53.0731966 195.678363,52.8576025 195.695963,52.6376052 L189.214876,64.464599 C188.994879,64.8605941 188.686887,65.0585887 188.290892,65.0585887 L187.921299,65.0585887 C187.525304,65.0585887 187.217312,64.8605941 186.997315,64.464599 L180.37103,52.5980059 C180.39743,52.8268031 180.417229,53.0511969 180.430429,53.2711942 C180.443629,53.4911915 180.450229,53.6935859 180.450229,53.8783836 L180.450229,67.7777412 L178.206268,67.7777412 L178.206268,48.8624711 L180.093835,48.8624711 C180.322632,48.8624711 180.498627,48.8844705 180.621826,48.9284699 C180.745024,48.9724694 180.863821,49.095666 180.97822,49.2980635 L187.512106,60.9402605 Z M206.18538,60.7026646 L206.18538,67.7777412 L203.637825,67.7777412 L203.637825,48.8624711 L209.221327,48.8624711 C210.418112,48.8624711 211.458684,49.0010673 212.343073,49.2782638 C213.227462,49.5554604 213.960042,49.9492496 214.540834,50.4596432 C215.121627,50.9700369 215.555015,51.58602 215.841012,52.307611 C216.127008,53.029202 216.270004,53.8343799 216.270004,54.7231689 C216.270004,55.6031579 216.116008,56.4083358 215.808012,57.1387268 C215.500016,57.8691177 215.049029,58.4983004 214.455036,59.0262938 C213.861043,59.5542873 213.124064,59.965676 212.244074,60.2604723 C211.364085,60.5552687 210.356513,60.7026646 209.221327,60.7026646 L206.18538,60.7026646 Z M206.18538,58.6699001 L209.221327,58.6699001 C209.951718,58.6699001 210.5963,58.5731027 211.155093,58.3795051 C211.713887,58.1859075 212.182474,57.915315 212.560869,57.5677193 C212.939264,57.2201236 213.225256,56.804335 213.418854,56.320341 C213.612452,55.836347 213.709249,55.3039617 213.709249,54.7231689 C213.709249,53.5175839 213.337459,52.5760097 212.593868,51.8984181 C211.850278,51.2208266 210.726108,50.8820359 209.221327,50.8820359 L206.18538,50.8820359 L206.18538,58.6699001 Z" id="8MP-+-8MP" stroke="#FFFFFF" fill="#FFFFFF"></path>
        <rect id="Rectangle-Copy" x="0" y="0" width="250" height="100"></rect>
    </g>
</svg>