<?xml version="1.0" encoding="UTF-8"?>
<svg width="250px" height="100px" viewBox="0 0 250 100" version="1.1" xmlns="http://www.w3.org/2000/svg" xmlns:xlink="http://www.w3.org/1999/xlink">
    <!-- Generator: Sketch 49.2 (51160) - http://www.bohemiancoding.com/sketch -->
    <title>main</title>
    <desc>Created with Sketch.</desc>
    <defs></defs>
    <g id="main" stroke="none" stroke-width="1" fill="none" fill-rule="evenodd">
        <path d="M11.6631827,65.8244273 L20.2430934,65.8244273 L20.2430934,35.5175426 C20.2430934,34.9191458 20.2694929,34.2855588 20.3222926,33.6167624 L12.0855783,40.9294863 C11.9095793,41.0878854 11.6983836,41.1670838 11.4519849,41.1670838 C11.1527865,41.1670838 10.9239912,41.061486 10.765592,40.8502871 L10,39.7942981 L20.7974877,30.2639973 L22.7510673,30.2639973 L22.7510673,65.8244273 L30.9085825,65.8244273 L30.9085825,67.778007 L11.6631827,67.778007 L11.6631827,65.8244273 Z M47.8220065,30 C49.2475988,30 50.6071711,30.2067958 51.9007641,30.6203935 C53.1943571,31.0339913 54.3339338,31.6587786 55.3195285,32.494774 C56.3051232,33.3307695 57.0883072,34.3779482 57.6691041,35.6363414 C58.2499009,36.8947346 58.540295,38.3687045 58.540295,40.0582954 C58.540295,41.4662877 58.3246994,42.7730611 57.8935017,43.9786546 C57.4623041,45.1842481 56.877116,46.3414244 56.13792,47.4502185 C55.398724,48.5590125 54.5407415,49.6369905 53.5639468,50.6841848 C52.5871521,51.7313791 51.561973,52.8005573 50.4883788,53.8917514 L38.7933004,65.8244273 C39.3564974,65.6836281 39.9416855,65.5780302 40.5488822,65.5076306 C41.1560789,65.437231 41.7676664,65.4020317 42.3836631,65.4020317 L58.5138953,65.4020317 C58.7954938,65.4020317 59.0198892,65.48563 59.1870883,65.6528291 C59.3542874,65.8200282 59.4378857,66.0356238 59.4378857,66.2996223 L59.4378857,67.778007 L35.3349364,67.778007 L35.3349364,66.8804163 C35.3349364,66.6868174 35.3833354,66.4888214 35.4801349,66.2864225 C35.5769344,66.0840236 35.695732,65.9124271 35.8365312,65.7716278 L48.5875985,52.8621621 C49.6435928,51.7885679 50.6203729,50.7501891 51.5179681,49.7469946 C52.4155632,48.7438 53.1943473,47.7318206 53.8543438,46.7110261 C54.5143402,45.6902317 55.0335296,44.643053 55.4119275,43.5694588 C55.7903255,42.4958646 55.9795216,41.351888 55.9795216,40.1374945 C55.9795216,38.764702 55.7507263,37.5723263 55.2931288,36.5603317 C54.8355313,35.5483372 54.2239437,34.7167542 53.4583479,34.0655577 C52.692752,33.4143612 51.81277,32.9303711 50.8183753,32.6135728 C49.8239807,32.2967745 48.781202,32.1383778 47.6900079,32.1383778 C46.5108143,32.1383778 45.4240364,32.3187741 44.4296418,32.6795721 C43.4352472,33.0403702 42.5552651,33.5419599 41.7896693,34.1843565 C41.0240734,34.826753 40.3904863,35.5923374 39.888889,36.4811326 C39.3872918,37.3699278 39.0396988,38.3423079 38.8460999,39.3983022 C38.6701008,40.0142989 38.318108,40.3222926 37.7901109,40.3222926 C37.7549111,40.3222926 37.710912,40.3178927 37.6581123,40.3090927 C37.6053125,40.3002928 37.5613134,40.2958929 37.5261136,40.2958929 L36.2589268,40.0846951 C36.4701257,38.4831037 36.9057168,37.0575328 37.5657132,35.8079396 C38.2257096,34.5583463 39.0572927,33.5023679 40.0604873,32.6399725 C41.0636818,31.7775772 42.2252581,31.1219906 43.545251,30.673193 C44.8652439,30.2243954 46.2908148,30 47.8220065,30 Z M77.4556982,60.9404781 C77.5788975,61.151677 77.6866953,61.3738724 77.7790948,61.6070712 C77.8714943,61.8402699 77.9616925,62.0756651 78.049692,62.3132638 C78.1376916,62.0668652 78.2300897,61.83147 78.3268891,61.6070712 C78.4236886,61.3826724 78.5336864,61.156077 78.6568857,60.9272782 L85.0588191,49.2981992 C85.1732185,49.0958003 85.2920161,48.9726028 85.4152154,48.9286031 C85.5384147,48.8846033 85.7144111,48.8626038 85.9432099,48.8626038 L87.8307903,48.8626038 L87.8307903,67.778007 L85.5868136,67.778007 L85.5868136,53.8785516 C85.5868136,53.6937526 85.5912135,53.4957566 85.6000135,53.2845578 C85.6088134,53.0733589 85.6220132,52.8577633 85.6396131,52.6377645 L79.1584805,64.4648414 C78.9384817,64.8608393 78.630488,65.0588353 78.2344901,65.0588353 L77.864894,65.0588353 C77.4688961,65.0588353 77.1609024,64.8608393 76.9409036,64.4648414 L70.3145725,52.5981649 C70.3409724,52.8269637 70.360772,53.0513591 70.3739719,53.2713579 C70.3871718,53.4913567 70.3937717,53.6937526 70.3937717,53.8785516 L70.3937717,67.778007 L68.149795,67.778007 L68.149795,48.8626038 L70.0373754,48.8626038 C70.2661742,48.8626038 70.4421706,48.8846033 70.5653699,48.9286031 C70.6885692,48.9726028 70.8073668,49.0958003 70.9217662,49.2981992 L77.4556982,60.9404781 Z M95.2491131,60.7028806 L95.2491131,67.778007 L92.7015396,67.778007 L92.7015396,48.8626038 L98.2850815,48.8626038 C99.481875,48.8626038 100.522454,49.0012009 101.406849,49.2783994 C102.291244,49.5555979 103.023829,49.9493899 103.604626,50.4597871 C104.185423,50.9701844 104.618814,51.5861718 104.904813,52.3077679 C105.190811,53.029364 105.333808,53.8345476 105.333808,54.7233428 C105.333808,55.603338 105.179811,56.4085216 104.871813,57.1389177 C104.563815,57.8693137 104.112824,58.4985009 103.518827,59.026498 C102.92483,59.5544952 102.187845,59.9658868 101.30785,60.2606852 C100.427855,60.5554836 99.4202754,60.7028806 98.2850815,60.7028806 L95.2491131,60.7028806 Z M95.2491131,58.6701017 L98.2850815,58.6701017 C99.0154776,58.6701017 99.6600644,58.5733037 100.218861,58.3797047 C100.777658,58.1861058 101.246249,57.9155113 101.624647,57.5679132 C102.003045,57.2203151 102.289039,56.8045236 102.482638,56.3205262 C102.676237,55.8365288 102.773035,55.3041396 102.773035,54.7233428 C102.773035,53.5177493 102.401242,52.5761685 101.657646,51.8985722 C100.91405,51.2209758 99.7898734,50.8821827 98.2850815,50.8821827 L95.2491131,50.8821827 L95.2491131,58.6701017 Z M128.25097,44.6914472 L128.25097,53.1459592 L136.309486,53.1459592 L136.309486,55.8189314 L128.25097,55.8189314 L128.25097,64.3328428 L125.3602,64.3328428 L125.3602,55.8189314 L117.341283,55.8189314 L117.341283,53.1459592 L125.3602,53.1459592 L125.3602,44.6914472 L128.25097,44.6914472 Z M148.629358,65.8244273 L157.209268,65.8244273 L157.209268,35.5175426 C157.209268,34.9191458 157.235668,34.2855588 157.288468,33.6167624 L149.051753,40.9294863 C148.875754,41.0878854 148.664559,41.1670838 148.41816,41.1670838 C148.118962,41.1670838 147.890166,41.061486 147.731767,40.8502871 L146.966175,39.7942981 L157.763663,30.2639973 L159.717242,30.2639973 L159.717242,65.8244273 L167.874758,65.8244273 L167.874758,67.778007 L148.629358,67.778007 L148.629358,65.8244273 Z M184.374586,45.4438393 C185.976177,45.4438393 187.454547,45.7078339 188.80974,46.2358311 C190.164932,46.7638282 191.330909,47.5074131 192.307703,48.4666079 C193.284498,49.4258027 194.050082,50.587379 194.604479,51.9513716 C195.158876,53.3153643 195.436071,54.8421331 195.436071,56.531724 C195.436071,58.2213148 195.132477,59.7788831 194.52528,61.2044754 C193.918084,62.6300677 193.073301,63.8620425 191.990907,64.9004369 C190.908512,65.9388313 189.610539,66.7484148 188.096947,67.3292116 C186.583355,67.9100085 184.920189,68.2004026 183.107399,68.2004026 C181.365008,68.2004026 179.772241,67.9188083 178.329049,67.3556114 C176.885857,66.7924144 175.649482,65.9828309 174.619887,64.9268366 C173.590293,63.8708423 172.793909,62.5816686 172.230712,61.0592769 C171.667515,59.5368851 171.385921,57.8165202 171.385921,55.8981306 C171.385921,54.4373385 171.755513,52.7873721 172.494709,50.9481821 C173.233905,49.108992 174.448281,47.0454341 176.137872,44.7574465 L186.328166,31.0295893 C186.627364,30.6247915 187.076155,30.4223956 187.674552,30.4223956 L189.892128,30.4223956 L178.751444,44.9686443 C178.205847,45.6902404 177.704258,46.3678265 177.24666,47.0014231 C176.789062,47.6350197 176.375471,48.259807 176.005873,48.8758036 C177.044267,47.8022094 178.276242,46.9618266 179.701834,46.3546299 C181.127427,45.7474331 182.684995,45.4438393 184.374586,45.4438393 Z M173.841095,56.5053242 C173.841095,57.8957167 174.056691,59.1804905 174.487889,60.3596841 C174.919086,61.5388778 175.530674,62.555257 176.32267,63.4088524 C177.114665,64.2624478 178.082646,64.9268343 179.226639,65.4020317 C180.370633,65.8772291 181.655407,66.1148243 183.080999,66.1148243 C184.594591,66.1148243 185.958563,65.8772291 187.172957,65.4020317 C188.38735,64.9268343 189.421329,64.2712476 190.274924,63.4352521 C191.12852,62.5992567 191.784106,61.604877 192.241704,60.4520832 C192.699302,59.2992894 192.928097,58.045315 192.928097,56.6901223 C192.928097,55.26453 192.703701,53.9753563 192.254904,52.8225626 C191.806106,51.6697688 191.172519,50.6929887 190.354124,49.892193 C189.535728,49.0913974 188.563348,48.4754099 187.436954,48.0442123 C186.31056,47.6130146 185.060986,47.397419 183.688193,47.397419 C182.139401,47.397419 180.75343,47.6658135 179.530236,48.2026106 C178.307043,48.7394077 177.273064,49.4345935 176.428269,50.2881889 C175.583473,51.1417843 174.941086,52.1141645 174.501089,53.2053586 C174.061091,54.2965527 173.841095,55.3965302 173.841095,56.5053242 Z M212.221896,60.9404781 C212.345095,61.151677 212.452893,61.3738724 212.545293,61.6070712 C212.637692,61.8402699 212.72789,62.0756651 212.81589,62.3132638 C212.903889,62.0668652 212.996288,61.83147 213.093087,61.6070712 C213.189887,61.3826724 213.299884,61.156077 213.423084,60.9272782 L219.825017,49.2981992 C219.939416,49.0958003 220.058214,48.9726028 220.181413,48.9286031 C220.304613,48.8846033 220.480609,48.8626038 220.709408,48.8626038 L222.596988,48.8626038 L222.596988,67.778007 L220.353012,67.778007 L220.353012,53.8785516 C220.353012,53.6937526 220.357411,53.4957566 220.366211,53.2845578 C220.375011,53.0733589 220.388211,52.8577633 220.405811,52.6377645 L213.924678,64.4648414 C213.70468,64.8608393 213.396686,65.0588353 213.000688,65.0588353 L212.631092,65.0588353 C212.235094,65.0588353 211.9271,64.8608393 211.707101,64.4648414 L205.08077,52.5981649 C205.10717,52.8269637 205.12697,53.0513591 205.14017,53.2713579 C205.15337,53.4913567 205.15997,53.6937526 205.15997,53.8785516 L205.15997,67.778007 L202.915993,67.778007 L202.915993,48.8626038 L204.803573,48.8626038 C205.032372,48.8626038 205.208368,48.8846033 205.331568,48.9286031 C205.454767,48.9726028 205.573565,49.0958003 205.687964,49.2981992 L212.221896,60.9404781 Z M230.015311,60.7028806 L230.015311,67.778007 L227.467738,67.778007 L227.467738,48.8626038 L233.051279,48.8626038 C234.248073,48.8626038 235.288652,49.0012009 236.173047,49.2783994 C237.057442,49.5555979 237.790027,49.9493899 238.370824,50.4597871 C238.951621,50.9701844 239.385012,51.5861718 239.671011,52.3077679 C239.957009,53.029364 240.100006,53.8345476 240.100006,54.7233428 C240.100006,55.603338 239.946009,56.4085216 239.638011,57.1389177 C239.330013,57.8693137 238.879022,58.4985009 238.285025,59.026498 C237.691028,59.5544952 236.954043,59.9658868 236.074048,60.2606852 C235.194053,60.5554836 234.186473,60.7028806 233.051279,60.7028806 L230.015311,60.7028806 Z M230.015311,58.6701017 L233.051279,58.6701017 C233.781675,58.6701017 234.426262,58.5733037 234.985059,58.3797047 C235.543856,58.1861058 236.012447,57.9155113 236.390845,57.5679132 C236.769243,57.2203151 237.055237,56.8045236 237.248836,56.3205262 C237.442435,55.8365288 237.539233,55.3041396 237.539233,54.7233428 C237.539233,53.5177493 237.16744,52.5761685 236.423844,51.8985722 C235.680248,51.2209758 234.556071,50.8821827 233.051279,50.8821827 L230.015311,50.8821827 L230.015311,58.6701017 Z" id="12MP-+-16MP" stroke="#FFFFFF" fill="#FFFFFF"></path>
        <rect id="Rectangle-Copy" x="0" y="0" width="250" height="100"></rect>
    </g>
</svg>