<?xml version="1.0" encoding="UTF-8"?>
<svg width="250px" height="100px" viewBox="0 0 250 100" version="1.1" xmlns="http://www.w3.org/2000/svg" xmlns:xlink="http://www.w3.org/1999/xlink">
    <!-- Generator: Sketch 49.2 (51160) - http://www.bohemiancoding.com/sketch -->
    <title>optiacl_zoom</title>
    <desc>Created with Sketch.</desc>
    <defs></defs>
    <g id="optiacl_zoom" stroke="none" stroke-width="1" fill="none" fill-rule="evenodd">
        <path d="M36.9762659,51.9879924 C36.9762659,54.1131169 36.6396829,56.0633183 35.9665068,57.8386552 C35.2933307,59.6139921 34.3429788,61.1418149 33.1154224,62.4221694 C31.887866,63.7025239 30.4128406,64.6957737 28.6903018,65.4019486 C26.967763,66.1081235 25.0637592,66.4612057 22.9782333,66.4612057 C20.8927075,66.4612057 18.9920035,66.1081235 17.2760645,65.4019486 C15.5601255,64.6957737 14.0883999,63.7025239 12.8608435,62.4221694 C11.6332871,61.1418149 10.6829351,59.6139921 10.0097591,57.8386552 C9.33658299,56.0633183 9,54.1131169 9,51.9879924 C9,49.8628679 9.33658299,47.9126665 10.0097591,46.1373296 C10.6829351,44.3619927 11.6332871,42.8308701 12.8608435,41.5439158 C14.0883999,40.2569615 15.5601255,39.2571121 17.2760645,38.5443374 C18.9920035,37.8315627 20.8927075,37.4751807 22.9782333,37.4751807 C25.0637592,37.4751807 26.967763,37.8315627 28.6903018,38.5443374 C30.4128406,39.2571121 31.887866,40.2569615 33.1154224,41.5439158 C34.3429788,42.8308701 35.2933307,44.3619927 35.9665068,46.1373296 C36.6396829,47.9126665 36.9762659,49.8628679 36.9762659,51.9879924 Z M33.0362256,51.9879924 C33.0362256,50.2456543 32.7986376,48.6815334 32.3234545,47.2955826 C31.8482714,45.9096319 31.1751054,44.7381911 30.3039364,43.7812251 C29.4327673,42.8242591 28.3768207,42.0883963 27.1360648,41.5736146 C25.8953089,41.0588329 24.5093789,40.8014459 22.9782333,40.8014459 C21.4602873,40.8014459 20.080957,41.0588329 18.8402011,41.5736146 C17.5994452,42.0883963 16.5401987,42.8242591 15.6624299,43.7812251 C14.7846611,44.7381911 14.1081953,45.9096319 13.6330122,47.2955826 C13.1578291,48.6815334 12.9202411,50.2456543 12.9202411,51.9879924 C12.9202411,53.7303305 13.1578291,55.2911516 13.6330122,56.6705026 C14.1081953,58.0498536 14.7846611,59.2179945 15.6624299,60.1749605 C16.5401987,61.1319265 17.5994452,61.8644895 18.8402011,62.3726714 C20.080957,62.8808534 21.4602873,63.1349405 22.9782333,63.1349405 C24.5093789,63.1349405 25.8953089,62.8808534 27.1360648,62.3726714 C28.3768207,61.8644895 29.4327673,61.1319265 30.3039364,60.1749605 C31.1751054,59.2179945 31.8482714,58.0498536 32.3234545,56.6705026 C32.7986376,55.2911516 33.0362256,53.7303305 33.0362256,51.9879924 Z M41.6686756,72.9553424 L41.6686756,46.1076308 L43.7673906,46.1076308 C44.2689727,46.1076308 44.5857567,46.3518184 44.717752,46.8402011 L45.01474,49.2161048 C45.8727095,48.1733418 46.85276,47.3351842 47.9549208,46.7016067 C49.0570816,46.0680292 50.3275174,45.7512452 51.7662663,45.7512452 C52.9146255,45.7512452 53.9573728,45.9723341 54.8945395,46.4145183 C55.8317062,46.8567026 56.6302658,47.5100696 57.2902424,48.3746389 C57.9502189,49.2392082 58.4583932,50.311654 58.8147806,51.5920085 C59.1711679,52.872363 59.3493589,54.3440886 59.3493589,56.0072295 C59.3493589,57.4855769 59.1513689,58.8616074 58.755383,60.1353621 C58.359397,61.4091168 57.7918257,62.5112611 57.052652,63.4418281 C56.3134783,64.372395 55.4060241,65.104958 54.3302624,65.639539 C53.2545006,66.17412 52.0434618,66.4414065 50.6971096,66.4414065 C49.4563537,66.4414065 48.3971073,66.2368168 47.5193385,65.8276314 C46.6415697,65.4184459 45.8661089,64.8376753 45.1929328,64.085302 L45.1929328,72.9553424 L41.6686756,72.9553424 Z M50.5981137,48.6023297 C49.4497545,48.6023297 48.4433053,48.8663163 47.5787361,49.3942975 C46.7141668,49.9222788 45.918907,50.6680411 45.1929328,51.6316068 L45.1929328,61.3332136 C45.8397098,62.2043826 46.5491739,62.8181516 47.3213465,63.1745389 C48.093519,63.5309262 48.9547755,63.7091172 49.9051417,63.7091172 C51.7662756,63.7091172 53.1984032,63.0425509 54.2015676,61.7093983 C55.2047319,60.3762457 55.7063066,58.4755417 55.7063066,56.0072295 C55.7063066,54.7004759 55.5908124,53.5785326 55.3598206,52.6413659 C55.1288288,51.7041992 54.7955457,50.9353381 54.3599612,50.3347594 C53.9243766,49.7341808 53.3898037,49.2953029 52.7562262,49.0181128 C52.1226487,48.7409226 51.403285,48.6023297 50.5981137,48.6023297 Z M69.6053431,66.4810049 C68.0213994,66.4810049 66.803761,66.0388272 65.9523912,65.1544586 C65.1010215,64.2700901 64.675343,62.9963545 64.675343,61.3332136 L64.675343,49.0577112 L62.2598409,49.0577112 C62.0486484,49.0577112 61.8704574,48.9950144 61.7252626,48.8696188 C61.5800677,48.7442233 61.5074714,48.5495331 61.5074714,48.2855425 L61.5074714,46.8797995 L64.7941382,46.4640163 L65.6059053,40.2668676 C65.6323043,40.0688746 65.7181,39.9071828 65.8632948,39.7817872 C66.0084897,39.6563917 66.1932803,39.5936949 66.4176723,39.5936949 L68.1996001,39.5936949 L68.1996001,46.5036147 L73.9413673,46.5036147 L73.9413673,49.0577112 L68.1996001,49.0577112 L68.1996001,61.0956232 C68.1996001,61.9403932 68.4041898,62.5673615 68.8133752,62.9765469 C69.2225607,63.3857324 69.750534,63.5903221 70.397311,63.5903221 C70.7668979,63.5903221 71.0869817,63.5408246 71.3575721,63.4418281 C71.6281625,63.3428316 71.8624506,63.2339371 72.0604436,63.1151413 C72.2584366,62.9963455 72.4267281,62.887451 72.5653231,62.7884546 C72.7039182,62.6894581 72.826012,62.6399606 72.9316083,62.6399606 C73.1164017,62.6399606 73.2813934,62.7521549 73.4265882,62.9765469 L74.4561465,64.6594787 C73.8489681,65.2270585 73.1164051,65.672536 72.2584356,65.9959245 C71.4004661,66.319313 70.5161108,66.4810049 69.6053431,66.4810049 Z M82.2174318,46.1076308 L82.2174318,66.1642177 L78.6931747,66.1642177 L78.6931747,46.1076308 L82.2174318,46.1076308 Z M83.0093997,39.811486 C83.0093997,40.1546738 82.9401032,40.4747577 82.8015082,40.7717471 C82.6629131,41.0687365 82.4781224,41.3327232 82.2471306,41.563715 C82.0161388,41.7947068 81.7488524,41.9761976 81.4452631,42.1081929 C81.1416739,42.2401882 80.8182903,42.3061849 80.4751025,42.3061849 C80.1319147,42.3061849 79.8118308,42.2401882 79.5148414,42.1081929 C79.217852,41.9761976 78.9538653,41.7947068 78.7228735,41.563715 C78.4918817,41.3327232 78.3103909,41.0687365 78.1783956,40.7717471 C78.0464003,40.4747577 77.9804036,40.1546738 77.9804036,39.811486 C77.9804036,39.4682982 78.0464003,39.1416147 78.1783956,38.8314258 C78.3103909,38.5212368 78.4918817,38.2506505 78.7228735,38.0196587 C78.9538653,37.7886669 79.217852,37.607176 79.5148414,37.4751807 C79.8118308,37.3431854 80.1319147,37.2771888 80.4751025,37.2771888 C80.8182903,37.2771888 81.1416739,37.3431854 81.4452631,37.4751807 C81.7488524,37.607176 82.0161388,37.7886669 82.2471306,38.0196587 C82.4781224,38.2506505 82.6629131,38.5212368 82.8015082,38.8314258 C82.9401032,39.1416147 83.0093997,39.4682982 83.0093997,39.811486 Z M102.115625,49.6714863 C102.010029,49.8166812 101.904434,49.9288755 101.798838,50.0080727 C101.693242,50.0872699 101.541449,50.1268679 101.343456,50.1268679 C101.145464,50.1268679 100.930974,50.044372 100.699983,49.8793779 C100.468991,49.7143837 100.175306,49.5328929 99.8189183,49.3349 C99.462531,49.136907 99.0302528,48.9554162 98.5220709,48.790422 C98.0138889,48.6254279 97.3902204,48.5429321 96.6510467,48.5429321 C95.6742814,48.5429321 94.8097251,48.7178232 94.0573519,49.0676108 C93.3049786,49.4173984 92.6747105,49.9222728 92.1665285,50.5822494 C91.6583466,51.2422259 91.2755659,52.0407856 91.0181751,52.9779523 C90.7607842,53.915119 90.6320907,54.9644659 90.6320907,56.1260247 C90.6320907,57.3403815 90.7706837,58.419427 91.0478739,59.3631934 C91.325064,60.3069599 91.7144443,61.0989199 92.2160265,61.7390971 C92.7176087,62.3792744 93.3280778,62.8676497 94.0474523,63.2042377 C94.7668267,63.5408257 95.5752858,63.7091172 96.4728539,63.7091172 C97.3308234,63.7091172 98.0369878,63.6068224 98.5913681,63.4022297 C99.1457484,63.197637 99.607725,62.9699485 99.9773119,62.7191574 C100.346899,62.4683663 100.650483,62.2406778 100.888075,62.0360851 C101.125667,61.8314923 101.363255,61.7291975 101.600846,61.7291975 C101.904435,61.7291975 102.128824,61.8413918 102.274019,62.0657839 L103.263979,63.3527317 C102.39281,64.4218937 101.303865,65.2039542 99.9971111,65.6989366 C98.6903575,66.193919 97.3110272,66.4414065 95.8590788,66.4414065 C94.6051234,66.4414065 93.4402823,66.2104181 92.3645205,65.7484346 C91.2887587,65.286451 90.3549059,64.6165848 89.5629341,63.738816 C88.7709622,62.8610472 88.1472937,61.7820018 87.6919099,60.5016473 C87.2365261,59.2212928 87.0088376,57.7627665 87.0088376,56.1260247 C87.0088376,54.6344777 87.2167271,53.2551474 87.6325123,51.9879924 C88.0482975,50.7208374 88.6554669,49.6285926 89.4540385,48.7112252 C90.2526101,47.7938578 91.2392602,47.077794 92.4140185,46.5630123 C93.5887767,46.0482306 94.9351087,45.7908436 96.4530547,45.7908436 C97.852205,45.7908436 99.0929423,46.0185321 100.175304,46.4739159 C101.257665,46.9292998 102.214617,47.5727672 103.046187,48.4043377 L102.115625,49.6714863 Z M121.657433,66.1642177 L120.093296,66.1642177 C119.750109,66.1642177 119.472923,66.1114204 119.26173,66.0058241 C119.050538,65.9002279 118.911945,65.6758392 118.845947,65.3326514 L118.449963,63.4715269 C117.921982,63.94671 117.407208,64.3723885 116.905626,64.7485751 C116.404043,65.1247617 115.87607,65.4415457 115.32169,65.6989366 C114.76731,65.9563274 114.176639,66.1510176 113.549662,66.2830129 C112.922684,66.4150082 112.226419,66.4810049 111.460846,66.4810049 C110.682074,66.4810049 109.952811,66.3721104 109.273035,66.1543181 C108.593259,65.9365259 108.002589,65.6098424 107.501007,65.1742578 C106.999425,64.7386733 106.600145,64.1876012 106.303155,63.5210249 C106.006166,62.8544486 105.857673,62.0657884 105.857673,61.1550208 C105.857673,60.3630489 106.075462,59.6007875 106.511047,58.8682135 C106.946632,58.1356395 107.649496,57.4855724 108.619662,56.9179925 C109.589827,56.3504127 110.860263,55.8851362 112.431007,55.5221491 C114.001751,55.159162 115.922254,54.9512725 118.192573,54.8984744 L118.192573,53.3343378 C118.192573,51.7767932 117.85929,50.5987527 117.192714,49.8001811 C116.526138,49.0016095 115.539488,48.6023297 114.232734,48.6023297 C113.374764,48.6023297 112.652101,48.7112241 112.064722,48.9290164 C111.477343,49.1468087 110.969168,49.3909963 110.540184,49.6615867 C110.111199,49.9321771 109.741618,50.1763648 109.431429,50.394157 C109.12124,50.6119493 108.814355,50.7208438 108.510766,50.7208438 C108.273174,50.7208438 108.065285,50.6581469 107.887091,50.5327514 C107.708898,50.4073559 107.567005,50.2522637 107.461408,50.0674703 L106.827834,48.938916 C107.936595,47.869754 109.131134,47.0711944 110.411489,46.5432131 C111.691843,46.0152319 113.110772,45.7512452 114.668316,45.7512452 C115.790276,45.7512452 116.786826,45.9360359 117.657995,46.3056228 C118.529164,46.6752096 119.261727,47.1899836 119.855706,47.8499602 C120.449685,48.5099367 120.898462,49.3084963 121.202051,50.245663 C121.505641,51.1828297 121.657433,52.2123777 121.657433,53.3343378 L121.657433,66.1642177 Z M112.510204,64.0061052 C113.130582,64.0061052 113.698153,63.9434084 114.212935,63.8180128 C114.727716,63.6926173 115.212792,63.5144263 115.668176,63.2834345 C116.12356,63.0524427 116.559138,62.7719569 116.974923,62.4419686 C117.390708,62.1119803 117.796588,61.7357993 118.192573,61.3134144 L118.192573,57.1357837 C116.569031,57.1885818 115.189701,57.3172753 114.054541,57.5218681 C112.919382,57.7264608 111.995428,57.9937473 111.282654,58.3237356 C110.569879,58.6537238 110.051805,59.0431042 109.728417,59.4918882 C109.405028,59.9406723 109.243336,60.4422469 109.243336,60.9966272 C109.243336,61.5246084 109.329132,61.9799854 109.500726,62.3627718 C109.67232,62.7455582 109.903308,63.0590424 110.193698,63.3032337 C110.484087,63.547425 110.82727,63.725616 111.223256,63.837812 C111.619242,63.950008 112.04822,64.0061052 112.510204,64.0061052 Z M130.923457,37 L130.923457,66.1642177 L127.3992,66.1642177 L127.3992,37 L130.923457,37 Z M165.096872,37.7919679 L165.096872,39.2175101 C165.096872,39.6662942 164.958279,40.0886728 164.681089,40.4846587 L148.62394,63.0359445 L164.819683,63.0359445 L164.819683,66.1642177 L143.594944,66.1642177 L143.594944,64.6594787 C143.594944,64.2634928 143.720337,63.8873118 143.971128,63.5309245 L160.048077,40.9202411 L144.347313,40.9202411 L144.347313,37.7919679 L165.096872,37.7919679 Z M177.609965,45.7908436 C179.075113,45.7908436 180.398346,46.0350313 181.579704,46.5234139 C182.761062,47.0117966 183.764211,47.7047616 184.589182,48.6023297 C185.414152,49.4998978 186.04772,50.5855429 186.489905,51.8592976 C186.932089,53.1330524 187.153178,54.5552805 187.153178,56.1260247 C187.153178,57.7099684 186.932089,59.1354963 186.489905,60.4026513 C186.04772,61.6698062 185.414152,62.7521515 184.589182,63.6497196 C183.764211,64.5472877 182.761062,65.2369529 181.579704,65.7187358 C180.398346,66.2005186 179.075113,66.4414065 177.609965,66.4414065 C176.144817,66.4414065 174.821584,66.2005186 173.640226,65.7187358 C172.458868,65.2369529 171.452419,64.5472877 170.620848,63.6497196 C169.789278,62.7521515 169.14911,61.6698062 168.700326,60.4026513 C168.251542,59.1354963 168.027153,57.7099684 168.027153,56.1260247 C168.027153,54.5552805 168.251542,53.1330524 168.700326,51.8592976 C169.14911,50.5855429 169.789278,49.4998978 170.620848,48.6023297 C171.452419,47.7047616 172.458868,47.0117966 173.640226,46.5234139 C174.821584,46.0350313 176.144817,45.7908436 177.609965,45.7908436 Z M177.609965,63.689318 C179.589894,63.689318 181.06822,63.0260516 182.044985,61.6994987 C183.02175,60.3729459 183.510126,58.5217394 183.510126,56.1458238 C183.510126,53.7567088 183.02175,51.8956028 182.044985,50.5624502 C181.06822,49.2292976 179.589894,48.5627313 177.609965,48.5627313 C176.6068,48.5627313 175.735644,48.7343226 174.996471,49.0775104 C174.257297,49.4206982 173.640228,49.9156732 173.145246,50.5624502 C172.650263,51.2092272 172.280682,52.004487 172.036491,52.9482535 C171.792299,53.8920199 171.670206,54.9578661 171.670206,56.1458238 C171.670206,57.3337816 171.792299,58.3963279 172.036491,59.3334946 C172.280682,60.2706613 172.650263,61.0593215 173.145246,61.6994987 C173.640228,62.339676 174.257297,62.8313511 174.996471,63.1745389 C175.735644,63.5177267 176.6068,63.689318 177.609965,63.689318 Z M199.626672,45.7908436 C201.09182,45.7908436 202.415053,46.0350313 203.596411,46.5234139 C204.777769,47.0117966 205.780919,47.7047616 206.605889,48.6023297 C207.43086,49.4998978 208.064428,50.5855429 208.506612,51.8592976 C208.948796,53.1330524 209.169885,54.5552805 209.169885,56.1260247 C209.169885,57.7099684 208.948796,59.1354963 208.506612,60.4026513 C208.064428,61.6698062 207.43086,62.7521515 206.605889,63.6497196 C205.780919,64.5472877 204.777769,65.2369529 203.596411,65.7187358 C202.415053,66.2005186 201.09182,66.4414065 199.626672,66.4414065 C198.161524,66.4414065 196.838291,66.2005186 195.656933,65.7187358 C194.475575,65.2369529 193.469126,64.5472877 192.637556,63.6497196 C191.805985,62.7521515 191.165817,61.6698062 190.717033,60.4026513 C190.268249,59.1354963 190.043861,57.7099684 190.043861,56.1260247 C190.043861,54.5552805 190.268249,53.1330524 190.717033,51.8592976 C191.165817,50.5855429 191.805985,49.4998978 192.637556,48.6023297 C193.469126,47.7047616 194.475575,47.0117966 195.656933,46.5234139 C196.838291,46.0350313 198.161524,45.7908436 199.626672,45.7908436 Z M199.626672,63.689318 C201.606602,63.689318 203.084927,63.0260516 204.061692,61.6994987 C205.038458,60.3729459 205.526833,58.5217394 205.526833,56.1458238 C205.526833,53.7567088 205.038458,51.8956028 204.061692,50.5624502 C203.084927,49.2292976 201.606602,48.5627313 199.626672,48.5627313 C198.623508,48.5627313 197.752352,48.7343226 197.013178,49.0775104 C196.274004,49.4206982 195.656936,49.9156732 195.161953,50.5624502 C194.666971,51.2092272 194.297389,52.004487 194.053198,52.9482535 C193.809007,53.8920199 193.686913,54.9578661 193.686913,56.1458238 C193.686913,57.3337816 193.809007,58.3963279 194.053198,59.3334946 C194.297389,60.2706613 194.666971,61.0593215 195.161953,61.6994987 C195.656936,62.339676 196.274004,62.8313511 197.013178,63.1745389 C197.752352,63.5177267 198.623508,63.689318 199.626672,63.689318 Z M213.525709,66.1642177 L213.525709,46.1076308 L215.624424,46.1076308 C216.126006,46.1076308 216.44279,46.3518184 216.574785,46.8402011 L216.832175,48.8993176 C217.571348,47.98855 218.399607,47.2427877 219.316974,46.6620083 C220.234341,46.081229 221.300187,45.7908436 222.514544,45.7908436 C223.874096,45.7908436 224.97294,46.1670246 225.811111,46.9193979 C226.649281,47.6717711 227.25315,48.6881198 227.622737,49.9684743 C227.899927,49.2425001 228.266209,48.6155318 228.721593,48.0875505 C229.176977,47.5595693 229.688451,47.1239913 230.256031,46.7808035 C230.82361,46.4376157 231.42748,46.1868284 232.067657,46.028434 C232.707834,45.8700396 233.357901,45.7908436 234.017878,45.7908436 C235.07384,45.7908436 236.014293,45.9591351 236.839264,46.2957232 C237.664234,46.6323112 238.363799,47.1239863 238.937979,47.7707634 C239.512158,48.4175404 239.951036,49.2128002 240.254625,50.1565666 C240.558214,51.1003331 240.710007,52.1793786 240.710007,53.3937354 L240.710007,66.1642177 L237.18575,66.1642177 L237.18575,53.3937354 C237.18575,51.8229912 236.842567,50.6317514 236.156191,49.8199803 C235.469816,49.0082091 234.473266,48.6023297 233.166513,48.6023297 C232.585733,48.6023297 232.034661,48.7046245 231.51328,48.9092172 C230.991898,49.1138099 230.533221,49.4140948 230.137235,49.8100807 C229.741249,50.2060666 229.427765,50.7043414 229.196773,51.3049201 C228.965782,51.9054987 228.850287,52.6017636 228.850287,53.3937354 L228.850287,66.1642177 L225.32603,66.1642177 L225.32603,53.3937354 C225.32603,51.7833926 225.002647,50.5822533 224.35587,49.7902815 C223.709093,48.9983096 222.76534,48.6023297 221.524584,48.6023297 C220.653415,48.6023297 219.844956,48.8366178 219.099183,49.3052012 C218.353409,49.7737845 217.670344,50.4106523 217.049966,51.2158237 L217.049966,66.1642177 L213.525709,66.1642177 Z" id="Optical-Zoom" fill="#FFFFFF"></path>
        <rect id="Rectangle-Copy" x="0" y="0" width="250" height="100"></rect>
    </g>
</svg>