<?xml version="1.0" encoding="UTF-8"?>
<svg width="250px" height="100px" viewBox="0 0 250 100" version="1.1" xmlns="http://www.w3.org/2000/svg" xmlns:xlink="http://www.w3.org/1999/xlink">
    <!-- Generator: Sketch 49.2 (51160) - http://www.bohemiancoding.com/sketch -->
    <title>touch</title>
    <desc>Created with Sketch.</desc>
    <defs></defs>
    <g id="touch" stroke="none" stroke-width="1" fill="none" fill-rule="evenodd">
        <g id="Group" transform="translate(33.000000, 19.000000)" fill="#FFFFFF" stroke="#FFFFFF">
            <path d="M13.7852005,24.4317993 L13.7852005,26.8649992 L3.19000012,26.8649992 L3.19000012,34.195399 L11.7678004,34.195399 L11.7678004,36.5361989 L3.19000012,36.5361989 L3.19000012,44.0667987 L13.7852005,44.0667987 L13.7852005,46.4999987 L0.187000024,46.4999987 L0.187000024,24.4317993 L13.7852005,24.4317993 Z M28.4108009,46.4999987 C28.0206656,46.4999987 27.7742681,46.3100672 27.6716009,45.9301987 L27.4252009,44.0359987 C26.7578642,44.8470694 25.9955718,45.4964296 25.1383008,45.9840987 C24.2810298,46.4717678 23.2980063,46.7155986 22.1892007,46.7155986 C21.2959962,46.7155986 20.4849377,46.5436337 19.7560007,46.1996987 C19.0270637,45.8557636 18.4059365,45.3501354 17.8926006,44.6827987 C17.3792647,44.0154621 16.984002,43.1838704 16.7068006,42.1879988 C16.4295992,41.1921272 16.2910005,40.0474053 16.2910005,38.7537989 C16.2910005,37.6039265 16.444999,36.5336372 16.7530006,35.542899 C17.0610021,34.5521607 17.505031,33.692336 18.0851006,32.963399 C18.6651702,32.2344621 19.3709965,31.6621011 20.2026007,31.2462991 C21.0342049,30.830497 21.9787288,30.6225991 23.0362008,30.6225991 C23.9910056,30.6225991 24.8071974,30.7842975 25.4848008,31.1076991 C26.1624043,31.4311007 26.7681315,31.8853961 27.3020009,32.470599 L27.3020009,23.8157993 L30.043201,23.8157993 L30.043201,46.4999987 L28.4108009,46.4999987 Z M23.0978008,44.4979987 C23.9910053,44.4979987 24.7738308,44.2926674 25.4463008,43.8819987 C26.1187709,43.47133 26.7373314,42.8912692 27.3020009,42.1417988 L27.3020009,34.595799 C26.7989317,33.9181956 26.2471039,33.443367 25.6465008,33.171299 C25.0458978,32.899231 24.3811378,32.763199 23.6522008,32.763199 C22.1943268,32.763199 21.0752713,33.2816605 20.2950007,34.318599 C19.5147301,35.3555375 19.1246006,36.8339227 19.1246006,38.7537989 C19.1246006,39.7702039 19.2118664,40.6402952 19.3864006,41.3640988 C19.5609349,42.0879024 19.817599,42.6833631 20.1564007,43.1504987 C20.4952024,43.6176344 20.9109982,43.9589976 21.4038007,44.1745987 C21.8966032,44.3901998 22.4612642,44.4979987 23.0978008,44.4979987 Z M39.6792013,30.6379991 C40.3568047,30.6379991 40.9907651,30.7124317 41.5811014,30.8612991 C42.1714377,31.0101665 42.7078657,31.228331 43.1904014,31.5157991 L47.4254016,31.5157991 L47.4254016,32.532199 C47.4254016,32.8710007 47.2098037,33.0865986 46.7786015,33.178999 L45.0076015,33.425399 C45.3566699,34.0927357 45.5312015,34.8370615 45.5312015,35.6583989 C45.5312015,36.4181361 45.3849029,37.1085625 45.0923015,37.7296989 C44.7997,38.3508353 44.3941707,38.88213 43.8757014,39.3235988 C43.3572322,39.7650677 42.7412383,40.1038643 42.0277014,40.3399988 C41.3141645,40.5761333 40.5313389,40.6941988 39.6792013,40.6941988 C38.9502643,40.6941988 38.2624045,40.606933 37.6156012,40.4323988 C37.2870662,40.6377332 37.0381021,40.8584643 36.8687012,41.0945988 C36.6993004,41.3307333 36.6146012,41.561731 36.6146012,41.7875988 C36.6146012,42.1572006 36.7634664,42.4369645 37.0612012,42.6268988 C37.358936,42.816833 37.7541988,42.952865 38.2470013,43.0349987 C38.7398037,43.1171325 39.2993315,43.1684653 39.9256013,43.1889987 C40.5518711,43.2095322 41.1909648,43.2428985 41.8429014,43.2890987 C42.494838,43.335299 43.1339316,43.4148648 43.7602014,43.5277987 C44.3864712,43.6407326 44.945999,43.8255308 45.4388015,44.0821987 C45.931604,44.3388667 46.3268667,44.6930631 46.6246015,45.1447987 C46.9223364,45.5965343 47.0712015,46.1817284 47.0712015,46.9003986 C47.0712015,47.5677353 46.9043699,48.2145288 46.5707015,48.8407986 C46.2370332,49.4670684 45.7570713,50.0240295 45.1308015,50.5116985 C44.5045317,50.9993676 43.7396726,51.3894971 42.8362014,51.6820985 C41.9327302,51.9747 40.911207,52.1209985 39.7716013,52.1209985 C38.6319956,52.1209985 37.6335722,52.0080663 36.7763012,51.7821985 C35.9190302,51.5563307 35.2080706,51.2534671 34.6434011,50.8735985 C34.0787316,50.49373 33.6552358,50.0548344 33.3729011,49.5568986 C33.0905663,49.0589628 32.9494011,48.5379347 32.9494011,47.9937986 C32.9494011,47.2237948 33.193232,46.5693013 33.6809011,46.0302987 C34.1685702,45.491296 34.8384635,45.062667 35.6906012,44.7443987 C35.2491323,44.5390643 34.8975025,44.2644338 34.6357011,43.9204987 C34.3738998,43.5765637 34.2430011,43.117135 34.2430011,42.5421988 C34.2430011,42.316331 34.2840674,42.0827666 34.3662011,41.8414988 C34.4483349,41.6002309 34.5741003,41.3615333 34.7435011,41.1253988 C34.912902,40.8892643 35.1207999,40.6633999 35.3672012,40.4477988 C35.6136024,40.2321977 35.9010662,40.0422663 36.2296012,39.8779988 C35.4595973,39.4467967 34.8564367,38.8744358 34.4201011,38.1608989 C33.9837656,37.447362 33.7656011,36.6132037 33.7656011,35.6583989 C33.7656011,34.8986618 33.9118996,34.2082354 34.2045011,33.587099 C34.4971026,32.9659626 34.9051985,32.4372346 35.4288012,32.000899 C35.9524038,31.5645635 36.5760976,31.2283336 37.2999012,30.9921991 C38.0237049,30.7560646 38.816797,30.6379991 39.6792013,30.6379991 Z M44.5456015,47.3469986 C44.5456015,46.9568634 44.4378025,46.6437332 44.2222014,46.4075987 C44.0066004,46.1714641 43.7140033,45.9892326 43.3444014,45.8608987 C42.9747996,45.7325647 42.5487371,45.637599 42.0662014,45.5759987 C41.5836656,45.5143984 41.0754707,45.4707655 40.5416013,45.4450987 C40.007732,45.4194319 39.4636041,45.3911988 38.9092013,45.3603987 C38.3547985,45.3295985 37.8260704,45.2731324 37.3230012,45.1909987 C36.7377983,45.4682001 36.2629697,45.8069967 35.8985012,46.2073987 C35.5340327,46.6078007 35.3518012,47.0851959 35.3518012,47.6395986 C35.3518012,47.988667 35.4416336,48.3146304 35.6213012,48.6174986 C35.8009687,48.9203668 36.0755993,49.1821641 36.4452012,49.4028986 C36.8148031,49.623633 37.2793651,49.7981646 37.8389012,49.9264986 C38.3984374,50.0548325 39.0580641,50.1189986 39.8178013,50.1189986 C40.557005,50.1189986 41.2191984,50.0522659 41.8044014,49.9187986 C42.3896043,49.7853312 42.884966,49.5953998 43.2905014,49.3489986 C43.6960368,49.1025974 44.0066004,48.8100003 44.2222014,48.4711986 C44.4378025,48.1323969 44.5456015,47.7576673 44.5456015,47.3469986 Z M39.6792013,38.8769989 C40.2336041,38.8769989 40.7238325,38.7999996 41.1499013,38.6459989 C41.5759702,38.4919981 41.9327333,38.2764003 42.2202014,37.9991989 C42.5076695,37.7219975 42.7232673,37.3909008 42.8670014,37.0058989 C43.0107355,36.620897 43.0826014,36.1974012 43.0826014,35.7353989 C43.0826014,34.7805942 42.792571,34.0208685 42.2125014,33.456199 C41.6324318,32.8915295 40.7880069,32.609199 39.6792013,32.609199 C38.5806624,32.609199 37.7413708,32.8915295 37.1613012,33.456199 C36.5812316,34.0208685 36.2912012,34.7805942 36.2912012,35.7353989 C36.2912012,36.1974012 36.3656338,36.620897 36.5145012,37.0058989 C36.6633686,37.3909008 36.8815331,37.7219975 37.1690012,37.9991989 C37.4564693,38.2764003 37.8106658,38.4919981 38.2316013,38.6459989 C38.6525367,38.7999996 39.1350652,38.8769989 39.6792013,38.8769989 Z M56.1220018,30.6533991 C57.0562732,30.6533991 57.9186646,30.8099642 58.7092019,31.1230991 C59.4997392,31.436234 60.1824658,31.8879628 60.757402,32.478299 C61.3323382,33.0686353 61.7815004,33.7975613 62.104902,34.665099 C62.4283037,35.5326366 62.590002,36.5207934 62.590002,37.6295989 C62.590002,38.060801 62.5438025,38.3482648 62.451402,38.4919989 C62.3590016,38.6357329 62.18447,38.7075989 61.927802,38.7075989 L51.5482017,38.7075989 C51.5687351,39.6932038 51.7022005,40.5504618 51.9486017,41.2793988 C52.1950029,42.0083358 52.5337996,42.6166297 52.9650017,43.1042987 C53.3962039,43.5919678 53.9095321,43.9564308 54.5050018,44.1976987 C55.1004714,44.4389666 55.7677981,44.5595987 56.5070018,44.5595987 C57.194872,44.5595987 57.7877661,44.4800328 58.2857019,44.3208987 C58.7836377,44.1617646 59.2122668,43.9897996 59.5716019,43.8049987 C59.9309371,43.6201978 60.2312341,43.4482329 60.472502,43.2890987 C60.7137699,43.1299646 60.9216678,43.0503987 61.096202,43.0503987 C61.3220698,43.0503987 61.4966014,43.1376645 61.619802,43.3121987 L62.389802,44.3131987 C62.0510003,44.7238674 61.645471,45.0806305 61.173202,45.3834987 C60.7009329,45.6863669 60.1953047,45.935331 59.6563019,46.1303987 C59.1172992,46.3254663 58.5603381,46.4717648 57.9854019,46.5692987 C57.4104657,46.6668325 56.8406713,46.7155986 56.2760018,46.7155986 C55.1979964,46.7155986 54.2047063,46.5333671 53.2961017,46.1688987 C52.3874972,45.8044302 51.602105,45.2705689 50.9399017,44.5672987 C50.2776983,43.8640285 49.7618035,42.9939373 49.3922016,41.9569988 C49.0225998,40.9200603 48.8378016,39.7291389 48.8378016,38.3841989 C48.8378016,37.2959268 49.0046333,36.279537 49.3383016,35.334999 C49.67197,34.3904609 50.1519318,33.5717025 50.7782017,32.878699 C51.4044715,32.1856956 52.1693305,31.6415677 53.0728017,31.2462991 C53.9762729,30.8510304 54.9926628,30.6533991 56.1220018,30.6533991 Z M56.1836018,32.670799 C54.8591952,32.670799 53.8171389,33.0532285 53.0574017,33.818099 C52.2976646,34.5829695 51.8254026,35.6429922 51.6406017,36.9981989 L60.126002,36.9981989 C60.126002,36.3616624 60.0387362,35.7790349 59.864202,35.250299 C59.6896677,34.721563 59.4330036,34.2647009 59.0942019,33.879699 C58.7554002,33.4946971 58.342171,33.1969667 57.8545019,32.986499 C57.3668328,32.7760313 56.8098716,32.670799 56.1836018,32.670799 Z M83.3250027,27.8813992 C83.2326022,28.0353999 83.1350699,28.1508988 83.0324027,28.2278992 C82.9297355,28.3048995 82.7962702,28.3433991 82.6320027,28.3433991 C82.4574685,28.3433991 82.2547038,28.2561334 82.0237027,28.0815992 C81.7927015,27.907065 81.5001044,27.7145669 81.1459026,27.5040992 C80.7917009,27.2936315 80.3656384,27.1011334 79.8677026,26.9265992 C79.3697668,26.752065 78.7666061,26.6647992 78.0582025,26.6647992 C77.3908658,26.6647992 76.8005384,26.7546316 76.2872025,26.9342992 C75.7738666,27.1139667 75.3452375,27.3577976 75.0013024,27.6657992 C74.6573674,27.9738007 74.3981366,28.3356971 74.2236024,28.7514991 C74.0490682,29.1673012 73.9618024,29.6164634 73.9618024,30.0989991 C73.9618024,30.7150022 74.1132342,31.2257637 74.4161024,31.6312991 C74.7189706,32.0368344 75.1193666,32.3833309 75.6173025,32.670799 C76.1152383,32.9582671 76.6798993,33.2072313 77.3113025,33.417699 C77.9427057,33.6281667 78.5894992,33.8463312 79.2517026,34.072199 C79.9139059,34.2980668 80.5606995,34.5521642 81.1921026,34.834499 C81.8235058,35.1168337 82.3881669,35.4735968 82.8861027,35.9047989 C83.3840385,36.3360011 83.7844345,36.8647291 84.0873027,37.4909989 C84.3901709,38.1172687 84.5416027,38.887261 84.5416027,39.8009988 C84.5416027,40.7660703 84.3773377,41.6720945 84.0488027,42.5190988 C83.7202677,43.366103 83.2403059,44.1027289 82.6089027,44.7289987 C81.9774995,45.3552685 81.2023739,45.8480635 80.2835026,46.2073987 C79.3646313,46.5667338 78.3200084,46.7463986 77.1496025,46.7463986 C75.7225287,46.7463986 74.4212416,46.4871679 73.2457024,45.9686987 C72.0701631,45.4502294 71.0666065,44.7495364 70.2350023,43.8665987 L71.0974023,42.4497988 C71.1795361,42.3368649 71.2796351,42.2418992 71.3977023,42.1648988 C71.5157696,42.0878984 71.6466683,42.0493988 71.7904023,42.0493988 C72.0060034,42.0493988 72.252401,42.1648976 72.5296024,42.3958988 C72.8068038,42.6268999 73.1533003,42.8809974 73.5691024,43.1581987 C73.9849045,43.4354001 74.4879661,43.6894976 75.0783024,43.9204987 C75.6686387,44.1514999 76.3898649,44.2669987 77.2420025,44.2669987 C77.9504061,44.2669987 78.5817998,44.1694664 79.1362026,43.9743987 C79.6906054,43.7793311 80.1603007,43.5047005 80.5453026,43.1504987 C80.9303046,42.796297 81.2254683,42.3728012 81.4308026,41.8799988 C81.636137,41.3871963 81.7388027,40.8379352 81.7388027,40.2321988 C81.7388027,39.5648622 81.5873708,39.0181677 81.2845026,38.5920989 C80.9816344,38.1660301 80.5838051,37.809267 80.0910026,37.5217989 C79.5982001,37.2343308 79.0361057,36.9904999 78.4047025,36.7902989 C77.7732994,36.5900979 77.1265058,36.3847666 76.4643025,36.1742989 C75.8020992,35.9638312 75.1553056,35.7200003 74.5239024,35.442799 C73.8924992,35.1655976 73.3304048,34.8062678 72.8376024,34.364799 C72.3447999,33.9233301 71.9469705,33.3715023 71.6441023,32.709299 C71.3412341,32.0470957 71.1898023,31.2283373 71.1898023,30.2529991 C71.1898023,29.4727285 71.3412341,28.7181361 71.6441023,27.9891992 C71.9469705,27.2602622 72.3858661,26.6134687 72.9608024,26.0487992 C73.5357386,25.4841297 74.2466982,25.0324009 75.0937024,24.6935992 C75.9407067,24.3547976 76.9134637,24.1853993 78.0120025,24.1853993 C79.2440087,24.1853993 80.3681975,24.380464 81.3846026,24.7705992 C82.4010078,25.1607345 83.2890656,25.7253955 84.0488027,26.4645992 L83.3250027,27.8813992 Z M93.869603,30.6533991 C94.8038744,30.6533991 95.6662658,30.8099642 96.4568031,31.1230991 C97.2473404,31.436234 97.930067,31.8879628 98.5050032,32.478299 C99.0799394,33.0686353 99.5291016,33.7975613 99.8525032,34.665099 C100.175905,35.5326366 100.337603,36.5207934 100.337603,37.6295989 C100.337603,38.060801 100.291404,38.3482648 100.199003,38.4919989 C100.106603,38.6357329 99.9320712,38.7075989 99.6754032,38.7075989 L89.2958029,38.7075989 C89.3163363,39.6932038 89.4498017,40.5504618 89.6962029,41.2793988 C89.9426041,42.0083358 90.2814008,42.6166297 90.7126029,43.1042987 C91.1438051,43.5919678 91.6571333,43.9564308 92.252603,44.1976987 C92.8480727,44.4389666 93.5153993,44.5595987 94.2546031,44.5595987 C94.9424732,44.5595987 95.5353673,44.4800328 96.0333031,44.3208987 C96.531239,44.1617646 96.959868,43.9897996 97.3192032,43.8049987 C97.6785383,43.6201978 97.9788353,43.4482329 98.2201032,43.2890987 C98.4613711,43.1299646 98.669269,43.0503987 98.8438032,43.0503987 C99.069671,43.0503987 99.2442026,43.1376645 99.3674032,43.3121987 L100.137403,44.3131987 C99.7986015,44.7238674 99.3930723,45.0806305 98.9208032,45.3834987 C98.4485342,45.6863669 97.9429059,45.935331 97.4039032,46.1303987 C96.8649004,46.3254663 96.3079393,46.4717648 95.7330031,46.5692987 C95.1580669,46.6668325 94.5882726,46.7155986 94.023603,46.7155986 C92.9455976,46.7155986 91.9523075,46.5333671 91.043703,46.1688987 C90.1350984,45.8044302 89.3497062,45.2705689 88.6875029,44.5672987 C88.0252995,43.8640285 87.5094047,42.9939373 87.1398028,41.9569988 C86.770201,40.9200603 86.5854028,39.7291389 86.5854028,38.3841989 C86.5854028,37.2959268 86.7522345,36.279537 87.0859028,35.334999 C87.4195712,34.3904609 87.8995331,33.5717025 88.5258029,32.878699 C89.1520727,32.1856956 89.9169317,31.6415677 90.8204029,31.2462991 C91.7238742,30.8510304 92.740264,30.6533991 93.869603,30.6533991 Z M93.931203,32.670799 C92.6067964,32.670799 91.5647401,33.0532285 90.8050029,33.818099 C90.0452658,34.5829695 89.5730038,35.6429922 89.3882029,36.9981989 L97.8736032,36.9981989 C97.8736032,36.3616624 97.7863374,35.7790349 97.6118032,35.250299 C97.437269,34.721563 97.1806048,34.2647009 96.8418031,33.879699 C96.5030014,33.4946971 96.0897722,33.1969667 95.6021031,32.986499 C95.114434,32.7760313 94.5574729,32.670799 93.931203,32.670799 Z M103.613403,46.4999987 L103.613403,30.8997991 L105.245803,30.8997991 C105.635939,30.8997991 105.882336,31.0897305 105.985003,31.4695991 L106.200603,33.163599 C106.878207,32.4141286 107.635366,31.8084014 108.472104,31.3463991 C109.308841,30.8843968 110.276465,30.6533991 111.375004,30.6533991 C112.227141,30.6533991 112.979167,30.7945643 113.631104,31.0768991 C114.28304,31.3592338 114.827168,31.7596298 115.263504,32.278099 C115.699839,32.7965683 116.030936,33.420262 116.256804,34.149199 C116.482672,34.8781359 116.595604,35.6840612 116.595604,36.5669989 L116.595604,46.4999987 L113.854404,46.4999987 L113.854404,36.5669989 C113.854404,35.3863264 113.584906,34.4700356 113.045904,33.818099 C112.506901,33.1661624 111.683009,32.840199 110.574204,32.840199 C109.763133,32.840199 109.005974,33.0352637 108.302704,33.425399 C107.599433,33.8155343 106.950073,34.3442623 106.354603,35.011599 L106.354603,46.4999987 L103.613403,46.4999987 Z M129.450204,33.471599 C129.327004,33.6974668 129.137072,33.810399 128.880404,33.810399 C128.726403,33.810399 128.551872,33.7539329 128.356804,33.640999 C128.161737,33.5280651 127.923039,33.4022997 127.640704,33.263699 C127.358369,33.1250983 127.022139,32.9967663 126.632004,32.878699 C126.241869,32.7606318 125.779873,32.701599 125.246004,32.701599 C124.784002,32.701599 124.368206,32.7606318 123.998604,32.878699 C123.629002,32.9967663 123.313305,33.1584647 123.051504,33.363799 C122.789703,33.5691334 122.589505,33.807831 122.450904,34.079899 C122.312303,34.351967 122.243004,34.6471307 122.243004,34.965399 C122.243004,35.365801 122.358503,35.6994643 122.589504,35.9663989 C122.820505,36.2333336 123.125935,36.4643313 123.505804,36.6593989 C123.885673,36.8544666 124.316868,37.0264315 124.799404,37.1752989 C125.28194,37.3241663 125.777302,37.4832981 126.285504,37.6526989 C126.793707,37.8220997 127.289068,38.0094645 127.771604,38.2147989 C128.25414,38.4201332 128.685336,38.6767973 129.065204,38.9847989 C129.445073,39.2928004 129.750503,39.6700966 129.981504,40.1166988 C130.212505,40.563301 130.328004,41.099729 130.328004,41.7259988 C130.328004,42.444669 130.199672,43.109429 129.943004,43.7202987 C129.686336,44.3311684 129.306473,44.8598965 128.803404,45.3064987 C128.300335,45.7531009 127.684341,46.1047307 126.955404,46.3613987 C126.226467,46.6180666 125.384609,46.7463986 124.429804,46.7463986 C123.341532,46.7463986 122.355942,46.5693004 121.473004,46.2150987 C120.590066,45.8608969 119.840607,45.4066015 119.224604,44.8521987 L119.871404,43.8049987 C119.953538,43.6715314 120.05107,43.5688658 120.164004,43.4969987 C120.276938,43.4251317 120.425803,43.3891987 120.610604,43.3891987 C120.795405,43.3891987 120.99047,43.4610647 121.195804,43.6047987 C121.401138,43.7485328 121.650102,43.9076645 121.942704,44.0821987 C122.235305,44.2567329 122.589502,44.4158647 123.005304,44.5595987 C123.421106,44.7033328 123.942134,44.7751987 124.568404,44.7751987 C125.102273,44.7751987 125.569402,44.7058994 125.969804,44.5672987 C126.370206,44.428698 126.703869,44.2413332 126.970804,44.0051987 C127.237739,43.7690642 127.43537,43.4970003 127.563704,43.1889987 C127.692038,42.8809972 127.756204,42.5524672 127.756204,42.2033988 C127.756204,41.7721966 127.640705,41.4154335 127.409704,41.1330988 C127.178703,40.8507641 126.873273,40.6094998 126.493404,40.4092988 C126.113536,40.2090978 125.679773,40.0345662 125.192104,39.8856988 C124.704435,39.7368314 124.206507,39.5802663 123.698304,39.4159988 C123.190101,39.2517314 122.692173,39.0643666 122.204504,38.8538989 C121.716835,38.6434311 121.283072,38.3790671 120.903204,38.0607989 C120.523335,37.7425306 120.217905,37.3498346 119.986904,36.8826989 C119.755903,36.4155633 119.640404,35.8483356 119.640404,35.180999 C119.640404,34.5855293 119.763603,34.0131684 120.010004,33.463899 C120.256405,32.9146296 120.615735,32.4321011 121.088004,32.016299 C121.560273,31.600497 122.140334,31.2694003 122.828204,31.0229991 C123.516074,30.7765978 124.301466,30.6533991 125.184404,30.6533991 C126.211076,30.6533991 127.1325,30.8150975 127.948704,31.1384991 C128.764908,31.4619007 129.470735,31.9059296 130.066204,32.470599 L129.450204,33.471599 Z M139.840805,30.6533991 C140.775076,30.6533991 141.637467,30.8099642 142.428005,31.1230991 C143.218542,31.436234 143.901268,31.8879628 144.476205,32.478299 C145.051141,33.0686353 145.500303,33.7975613 145.823705,34.665099 C146.147106,35.5326366 146.308805,36.5207934 146.308805,37.6295989 C146.308805,38.060801 146.262605,38.3482648 146.170205,38.4919989 C146.077804,38.6357329 145.903273,38.7075989 145.646605,38.7075989 L135.267004,38.7075989 C135.287538,39.6932038 135.421003,40.5504618 135.667404,41.2793988 C135.913806,42.0083358 136.252602,42.6166297 136.683804,43.1042987 C137.115007,43.5919678 137.628335,43.9564308 138.223804,44.1976987 C138.819274,44.4389666 139.486601,44.5595987 140.225805,44.5595987 C140.913675,44.5595987 141.506569,44.4800328 142.004505,44.3208987 C142.50244,44.1617646 142.931069,43.9897996 143.290405,43.8049987 C143.64974,43.6201978 143.950037,43.4482329 144.191305,43.2890987 C144.432573,43.1299646 144.64047,43.0503987 144.815005,43.0503987 C145.040872,43.0503987 145.215404,43.1376645 145.338605,43.3121987 L146.108605,44.3131987 C145.769803,44.7238674 145.364274,45.0806305 144.892005,45.3834987 C144.419736,45.6863669 143.914107,45.935331 143.375105,46.1303987 C142.836102,46.3254663 142.279141,46.4717648 141.704205,46.5692987 C141.129268,46.6668325 140.559474,46.7155986 139.994805,46.7155986 C138.916799,46.7155986 137.923509,46.5333671 137.014904,46.1688987 C136.1063,45.8044302 135.320908,45.2705689 134.658704,44.5672987 C133.996501,43.8640285 133.480606,42.9939373 133.111004,41.9569988 C132.741402,40.9200603 132.556604,39.7291389 132.556604,38.3841989 C132.556604,37.2959268 132.723436,36.279537 133.057104,35.334999 C133.390773,34.3904609 133.870735,33.5717025 134.497004,32.878699 C135.123274,32.1856956 135.888133,31.6415677 136.791604,31.2462991 C137.695076,30.8510304 138.711466,30.6533991 139.840805,30.6533991 Z M139.902405,32.670799 C138.577998,32.670799 137.535942,33.0532285 136.776204,33.818099 C136.016467,34.5829695 135.544205,35.6429922 135.359404,36.9981989 L143.844805,36.9981989 C143.844805,36.3616624 143.757539,35.7790349 143.583005,35.250299 C143.40847,34.721563 143.151806,34.2647009 142.813005,33.879699 C142.474203,33.4946971 142.060974,33.1969667 141.573305,32.986499 C141.085635,32.7760313 140.528674,32.670799 139.902405,32.670799 Z" id="Edge-Sense-2" stroke-width="0.4"></path>
            <path d="M171.461646,0.799999237 C173.295171,0.799999237 175.043784,1.07205569 176.707539,1.61617675 C178.371293,2.16029781 179.836959,2.98225559 181.104581,4.08207476 C182.372204,5.18189393 183.379495,6.55954148 184.126487,8.21505875 C184.873479,9.87057602 185.246969,11.8097018 185.246969,14.0324942 C185.246969,15.8848212 184.969681,17.6039864 184.415096,19.1900414 C183.860511,20.7760965 183.107872,22.2984549 182.157155,23.7571624 C181.206439,25.2158699 180.102945,26.6340365 178.846641,28.0117048 C177.590336,29.389373 176.271803,30.7959627 174.891,32.2315161 L159.849379,47.9299091 C160.573734,47.7446764 161.326374,47.605754 162.10732,47.5131376 C162.888265,47.4205213 163.674859,47.3742138 164.467122,47.3742138 L185.213015,47.3742138 C185.575193,47.3742138 185.863799,47.4841941 186.078842,47.7041579 C186.293885,47.9241217 186.401405,48.207755 186.401405,48.5550664 L186.401405,50.5 L155.401405,50.5 L155.401405,49.3191474 C155.401405,49.0644525 155.463653,48.8039729 155.588152,48.5377009 C155.712651,48.2714289 155.865442,48.0456799 156.046531,47.8604472 L172.446312,30.8770088 C173.804479,29.4646094 175.060764,28.0985387 176.215206,26.7787558 C177.369647,25.4589728 178.37128,24.1276327 179.220134,22.7846956 C180.068989,21.4417585 180.736744,20.064111 181.22342,18.6517116 C181.710097,17.2393123 181.953431,15.7343191 181.953431,14.1366871 C181.953431,12.3306682 181.659166,10.7620023 181.070627,9.43064228 C180.482088,8.09928223 179.695495,7.005268 178.710825,6.14856675 C177.726154,5.29186551 176.594365,4.65513765 175.315425,4.23836407 C174.036484,3.82159049 172.695315,3.61320683 171.291876,3.61320683 C169.775257,3.61320683 168.377498,3.85053267 167.098557,4.32519146 C165.819617,4.79985026 164.687828,5.45973186 163.703157,6.30485607 C162.718487,7.14998027 161.903599,8.15716797 161.25847,9.3264494 C160.61334,10.4957308 160.166284,11.774975 159.917287,13.1642203 C159.690926,13.9746133 159.23821,14.3798038 158.559127,14.3798038 C158.513855,14.3798038 158.457265,14.3740153 158.389357,14.3624383 C158.321448,14.3508613 158.264859,14.3450728 158.219587,14.3450728 L156.589795,14.0672252 C156.861428,11.9602032 157.421664,10.0847502 158.270518,8.44080998 C159.119372,6.79686975 160.188912,5.40764533 161.479171,4.27309503 C162.769429,3.13854473 164.26339,2.2760679 165.961098,1.68563866 C167.658807,1.09520943 169.492304,0.799999237 171.461646,0.799999237 Z" id="Path" stroke-width="0.628"></path>
        </g>
        <rect id="Rectangle-Copy" x="0" y="0" width="250" height="100"></rect>
    </g>
</svg>