<?xml version="1.0" encoding="UTF-8"?>
<svg width="250px" height="100px" viewBox="0 0 250 100" version="1.1" xmlns="http://www.w3.org/2000/svg" xmlns:xlink="http://www.w3.org/1999/xlink">
    <!-- Generator: Sketch 49.2 (51160) - http://www.bohemiancoding.com/sketch -->
    <title>voice_assistants</title>
    <desc>Created with Sketch.</desc>
    <defs></defs>
    <g id="voice_assistants" stroke="none" stroke-width="1" fill="none" fill-rule="evenodd">
        <g id="ic-voice" transform="translate(104.000000, 11.000000)" fill="#FFFFFF">
            <path d="M30.6213263,35.7314498 C30.6152526,40.350419 26.8635627,44.0933227 22.2337509,44.0993821 C17.6034607,44.0939959 13.8510257,40.3508954 13.8449506,35.7314498 L13.8449506,11.5332521 C13.8503509,6.91332923 17.6029831,3.16948534 22.2337509,3.16409767 C26.8640403,3.17015857 30.6159273,6.91380567 30.6213263,11.5332521 L30.6213263,35.7314498 Z M22.2337509,0.442411494 C16.0940701,0.442411494 11.1168755,5.40794998 11.1168755,11.5332521 L11.1168755,35.7314498 C11.2070686,41.7925543 16.157749,46.6588602 22.2337509,46.6588602 C28.3097528,46.6588602 33.2604332,41.7925543 33.3506264,35.7314498 L33.3506264,11.5332521 C33.3509513,8.59167892 32.1798168,5.77049184 30.0949278,3.69048548 C28.0100388,1.61047912 25.1822292,0.4420873 22.2337509,0.442411494 Z" id="Shape"></path>
            <path d="M38.7271516,50.2365929 C37.040978,53.1538165 34.6314816,55.5896541 31.7299513,57.3102883 C25.8823319,60.7968757 18.5876199,60.7968757 12.7400005,57.3102883 C9.8245004,55.5785284 7.47005031,53.1965947 5.74035023,50.2365929 C4.16132517,47.5405715 3.24992513,44.5585714 3.02085012,41.3516991 C2.75695011,40.6339007 2.27500009,40.2750015 1.57500006,40.2750015 C0.875000036,40.2750015 0.569683357,40.6339007 0.659050027,41.3516991 C0.862345906,44.5483288 1.70979212,47.6712161 3.15070013,50.5335708 C4.75672,53.6904808 7.06861161,56.4368447 9.90780041,58.5605285 C12.7351005,60.6845925 15.8613006,62.0057163 19.1920758,62.4847918 C19.9858758,62.6021164 20.5763258,63.2816213 20.5763258,64.0821173 L20.5763258,74.019266 L10.0388754,74.019266 C9.2852,74.019266 8.67422536,74.6288098 8.67422536,75.3807202 C8.67422536,76.1326305 9.2852,76.7421743 10.0388754,76.7421743 L34.4286264,76.7421743 C35.1823018,76.7421743 35.7932765,76.1326305 35.7932765,75.3807202 C35.7932765,74.6288098 35.1823018,74.019266 34.4286264,74.019266 L23.893626,74.019266 L23.893626,64.0833394 C23.893626,63.2816213 24.481626,62.6021164 25.277876,62.4847918 C28.6086512,62.0057163 31.7311763,60.6845925 34.5609264,58.5617506 C37.4034573,56.4342535 39.7171544,53.6827186 41.3229267,50.5201274 C42.7615749,47.6620514 43.6069754,44.5435984 43.8084518,41.3516991 C43.6528185,40.6339007 43.2250018,40.2750015 42.5250017,40.2750015 C41.8250017,40.2750015 41.46596,40.6339007 41.4478767,41.3516991 C41.2188017,44.5585714 40.3086267,47.5405715 38.7271516,50.2365929 Z" id="Shape" stroke="#FFFFFF" stroke-width="0.1"></path>
        </g>
        <rect id="Rectangle-Copy" x="0" y="0" width="250" height="100"></rect>
    </g>
</svg>